<svg xmlns="http://www.w3.org/2000/svg" xmlns:xlink="http://www.w3.org/1999/xlink" width="250" zoomAndPan="magnify" viewBox="0 0 187.5 314.999992" height="420" preserveAspectRatio="xMidYMid meet" version="1.0"><defs><clipPath id="2ccc02f2d2"><path d="M 0 4.847656 L 187 4.847656 L 187 309.960938 L 0 309.960938 Z M 0 4.847656 " clip-rule="nonzero"/></clipPath><clipPath id="30f70d36ca"><path d="M 17.089844 88.265625 L 169.914062 88.265625 L 169.914062 155.601562 L 17.089844 155.601562 Z M 17.089844 88.265625 " clip-rule="nonzero"/></clipPath><clipPath id="804acb127a"><path d="M 26.066406 88.265625 L 160.9375 88.265625 C 165.894531 88.265625 169.914062 92.285156 169.914062 97.242188 L 169.914062 146.628906 C 169.914062 151.585938 165.894531 155.601562 160.9375 155.601562 L 26.066406 155.601562 C 21.109375 155.601562 17.089844 151.585938 17.089844 146.628906 L 17.089844 97.242188 C 17.089844 92.285156 21.109375 88.265625 26.066406 88.265625 Z M 26.066406 88.265625 " clip-rule="nonzero"/></clipPath></defs><path fill="#bde7ff" d="M 24.613281 9.863281 L 162.4375 9.863281 C 173.300781 9.863281 182.125 18.683594 182.125 29.535156 L 182.125 255.761719 L 4.921875 255.761719 L 4.921875 29.535156 C 4.921875 18.683594 13.75 9.863281 24.613281 9.863281 Z M 24.613281 9.863281 " fill-opacity="1" fill-rule="nonzero"/><path fill="#4b638e" d="M 4.921875 255.761719 L 182.125 255.761719 L 182.125 285.269531 C 182.125 296.125 173.300781 304.941406 162.4375 304.941406 L 24.613281 304.941406 C 13.75 304.941406 4.921875 296.125 4.921875 285.269531 Z M 4.921875 255.761719 " fill-opacity="1" fill-rule="nonzero"/><g clip-path="url(#2ccc02f2d2)"><path fill="#4b638e" d="M 162.4375 4.945312 L 24.613281 4.945312 C 11.042969 4.945312 0 15.980469 0 29.535156 L 0 285.269531 C 0 298.828125 11.042969 309.859375 24.613281 309.859375 L 162.4375 309.859375 C 176.007812 309.859375 187.050781 298.828125 187.050781 285.269531 L 187.050781 29.535156 C 187.050781 15.980469 176.007812 4.945312 162.4375 4.945312 Z M 9.84375 29.535156 C 9.84375 21.40625 16.472656 14.78125 24.613281 14.78125 L 162.4375 14.78125 C 170.574219 14.78125 177.203125 21.40625 177.203125 29.535156 L 177.203125 250.84375 L 9.84375 250.84375 Z M 177.203125 285.269531 C 177.203125 293.402344 170.574219 300.023438 162.4375 300.023438 L 24.613281 300.023438 C 16.472656 300.023438 9.84375 293.402344 9.84375 285.269531 L 9.84375 260.679688 L 177.203125 260.679688 Z M 177.203125 285.269531 " fill-opacity="1" fill-rule="nonzero"/></g><path fill="#3b517e" d="M 103.371094 280.351562 C 103.371094 281 103.304688 281.636719 103.179688 282.273438 C 103.054688 282.90625 102.867188 283.519531 102.621094 284.117188 C 102.371094 284.714844 102.070312 285.28125 101.710938 285.816406 C 101.351562 286.355469 100.941406 286.851562 100.484375 287.308594 C 100.027344 287.765625 99.53125 288.171875 98.992188 288.53125 C 98.457031 288.890625 97.890625 289.191406 97.292969 289.441406 C 96.695312 289.6875 96.078125 289.875 95.445312 290 C 94.8125 290.125 94.171875 290.1875 93.523438 290.1875 C 92.878906 290.1875 92.238281 290.125 91.605469 290 C 90.96875 289.875 90.355469 289.6875 89.757812 289.441406 C 89.160156 289.191406 88.59375 288.890625 88.054688 288.53125 C 87.519531 288.171875 87.019531 287.765625 86.5625 287.308594 C 86.105469 286.851562 85.699219 286.355469 85.339844 285.816406 C 84.980469 285.28125 84.675781 284.714844 84.429688 284.117188 C 84.183594 283.519531 83.996094 282.90625 83.867188 282.273438 C 83.742188 281.636719 83.679688 281 83.679688 280.351562 C 83.679688 279.707031 83.742188 279.066406 83.867188 278.433594 C 83.996094 277.800781 84.183594 277.183594 84.429688 276.589844 C 84.675781 275.992188 84.980469 275.425781 85.339844 274.886719 C 85.699219 274.351562 86.105469 273.855469 86.5625 273.398438 C 87.019531 272.941406 87.519531 272.535156 88.054688 272.175781 C 88.59375 271.816406 89.160156 271.511719 89.757812 271.265625 C 90.355469 271.019531 90.96875 270.832031 91.605469 270.707031 C 92.238281 270.578125 92.878906 270.515625 93.523438 270.515625 C 94.171875 270.515625 94.8125 270.578125 95.445312 270.707031 C 96.078125 270.832031 96.695312 271.019531 97.292969 271.265625 C 97.890625 271.511719 98.457031 271.816406 98.992188 272.175781 C 99.53125 272.535156 100.027344 272.941406 100.484375 273.398438 C 100.941406 273.855469 101.351562 274.351562 101.710938 274.886719 C 102.070312 275.425781 102.371094 275.992188 102.621094 276.589844 C 102.867188 277.183594 103.054688 277.800781 103.179688 278.433594 C 103.304688 279.066406 103.371094 279.707031 103.371094 280.351562 Z M 103.371094 280.351562 " fill-opacity="1" fill-rule="nonzero"/><path fill="#3b517e" d="M 152.59375 285.269531 L 132.902344 285.269531 C 130.179688 285.269531 127.980469 283.074219 127.980469 280.351562 C 127.980469 277.632812 130.179688 275.433594 132.902344 275.433594 L 152.59375 275.433594 C 155.316406 275.433594 157.515625 277.632812 157.515625 280.351562 C 157.515625 283.074219 155.316406 285.269531 152.59375 285.269531 Z M 152.59375 285.269531 " fill-opacity="1" fill-rule="nonzero"/><path fill="#3b517e" d="M 54.144531 285.269531 L 34.457031 285.269531 C 31.734375 285.269531 29.535156 283.074219 29.535156 280.351562 C 29.535156 277.632812 31.734375 275.433594 34.457031 275.433594 L 54.144531 275.433594 C 56.871094 275.433594 59.066406 277.632812 59.066406 280.351562 C 59.066406 283.074219 56.871094 285.269531 54.144531 285.269531 Z M 54.144531 285.269531 " fill-opacity="1" fill-rule="nonzero"/><path fill="#a0d2f7" d="M 113.214844 34.453125 L 73.835938 34.453125 C 71.113281 34.453125 68.914062 32.257812 68.914062 29.535156 C 68.914062 26.816406 71.113281 24.617188 73.835938 24.617188 L 113.214844 24.617188 C 115.9375 24.617188 118.136719 26.816406 118.136719 29.535156 C 118.136719 32.257812 115.9375 34.453125 113.214844 34.453125 Z M 113.214844 34.453125 " fill-opacity="1" fill-rule="nonzero"/><path fill="#a0d2f7" d="M 137.824219 29.535156 C 137.824219 29.859375 137.792969 30.179688 137.730469 30.496094 C 137.667969 30.8125 137.574219 31.121094 137.449219 31.417969 C 137.328125 31.714844 137.175781 32 136.996094 32.269531 C 136.816406 32.535156 136.613281 32.785156 136.382812 33.015625 C 136.15625 33.242188 135.90625 33.445312 135.636719 33.625 C 135.371094 33.804688 135.085938 33.957031 134.785156 34.078125 C 134.488281 34.203125 134.179688 34.296875 133.863281 34.359375 C 133.546875 34.421875 133.226562 34.453125 132.902344 34.453125 C 132.582031 34.453125 132.261719 34.421875 131.941406 34.359375 C 131.625 34.296875 131.316406 34.203125 131.019531 34.078125 C 130.722656 33.957031 130.4375 33.804688 130.167969 33.625 C 129.898438 33.445312 129.652344 33.242188 129.421875 33.015625 C 129.195312 32.785156 128.988281 32.535156 128.808594 32.269531 C 128.632812 32 128.480469 31.714844 128.355469 31.417969 C 128.230469 31.121094 128.136719 30.8125 128.074219 30.496094 C 128.011719 30.179688 127.980469 29.859375 127.980469 29.535156 C 127.980469 29.214844 128.011719 28.894531 128.074219 28.578125 C 128.136719 28.261719 128.230469 27.953125 128.355469 27.652344 C 128.480469 27.355469 128.632812 27.074219 128.808594 26.804688 C 128.988281 26.535156 129.195312 26.285156 129.421875 26.058594 C 129.652344 25.832031 129.898438 25.625 130.167969 25.445312 C 130.4375 25.269531 130.722656 25.117188 131.019531 24.992188 C 131.316406 24.867188 131.625 24.777344 131.941406 24.710938 C 132.261719 24.648438 132.582031 24.617188 132.902344 24.617188 C 133.226562 24.617188 133.546875 24.648438 133.863281 24.710938 C 134.179688 24.777344 134.488281 24.867188 134.785156 24.992188 C 135.085938 25.117188 135.371094 25.269531 135.636719 25.445312 C 135.90625 25.625 136.15625 25.832031 136.382812 26.058594 C 136.613281 26.285156 136.816406 26.535156 136.996094 26.804688 C 137.175781 27.074219 137.328125 27.355469 137.449219 27.652344 C 137.574219 27.953125 137.667969 28.261719 137.730469 28.578125 C 137.792969 28.894531 137.824219 29.214844 137.824219 29.535156 Z M 137.824219 29.535156 " fill-opacity="1" fill-rule="nonzero"/><path fill="#5a719e" d="M 29.535156 54.125 L 157.515625 54.125 L 157.515625 93.46875 L 29.535156 93.46875 Z M 29.535156 54.125 " fill-opacity="1" fill-rule="nonzero"/><path fill="#4b638e" d="M 39.378906 63.960938 L 157.515625 63.960938 L 157.515625 93.46875 L 39.378906 93.46875 Z M 39.378906 63.960938 " fill-opacity="1" fill-rule="nonzero"/><path fill="#ffffff" d="M 137.824219 78.714844 L 98.445312 78.714844 C 95.722656 78.714844 93.523438 76.519531 93.523438 73.796875 C 93.523438 71.078125 95.722656 68.878906 98.445312 68.878906 L 137.824219 68.878906 C 140.550781 68.878906 142.746094 71.078125 142.746094 73.796875 C 142.746094 76.519531 140.550781 78.714844 137.824219 78.714844 Z M 137.824219 78.714844 " fill-opacity="1" fill-rule="nonzero"/><path fill="#5a719e" d="M 78.757812 113.140625 L 157.515625 113.140625 L 157.515625 152.484375 L 78.757812 152.484375 Z M 78.757812 113.140625 " fill-opacity="1" fill-rule="nonzero"/><path fill="#4b638e" d="M 88.601562 122.976562 L 157.515625 122.976562 L 157.515625 152.484375 L 88.601562 152.484375 Z M 88.601562 122.976562 " fill-opacity="1" fill-rule="nonzero"/><path fill="#f2b442" d="M 59.066406 172.15625 L 157.515625 172.15625 L 157.515625 231.171875 L 59.066406 231.171875 Z M 59.066406 172.15625 " fill-opacity="1" fill-rule="nonzero"/><path fill="#f09a23" d="M 59.066406 181.992188 L 157.515625 181.992188 L 157.515625 231.171875 L 59.066406 231.171875 Z M 59.066406 181.992188 " fill-opacity="1" fill-rule="nonzero"/><path fill="#f4666a" d="M 29.535156 113.140625 L 59.066406 113.140625 L 59.066406 152.484375 L 29.535156 152.484375 Z M 29.535156 113.140625 " fill-opacity="1" fill-rule="nonzero"/><path fill="#ec4a54" d="M 39.378906 122.976562 L 59.066406 122.976562 L 59.066406 152.484375 L 39.378906 152.484375 Z M 39.378906 122.976562 " fill-opacity="1" fill-rule="nonzero"/><path fill="#5a719e" d="M 29.535156 172.15625 L 59.066406 172.15625 L 59.066406 231.171875 L 29.535156 231.171875 Z M 29.535156 172.15625 " fill-opacity="1" fill-rule="nonzero"/><path fill="#4b638e" d="M 39.378906 181.992188 L 59.066406 181.992188 L 59.066406 231.171875 L 39.378906 231.171875 Z M 39.378906 181.992188 " fill-opacity="1" fill-rule="nonzero"/><g clip-path="url(#30f70d36ca)"><g clip-path="url(#804acb127a)"><path fill="#00669b" d="M 17.089844 88.265625 L 169.914062 88.265625 L 169.914062 155.601562 L 17.089844 155.601562 Z M 17.089844 88.265625 " fill-opacity="1" fill-rule="nonzero"/></g></g></svg>