<svg xmlns="http://www.w3.org/2000/svg" xmlns:xlink="http://www.w3.org/1999/xlink" width="420" zoomAndPan="magnify" viewBox="0 0 315 277.499997" height="370" preserveAspectRatio="xMidYMid meet" version="1.0"><defs><g/><clipPath id="3944df9747"><path d="M 208 130 L 307.230469 130 L 307.230469 269.515625 L 208 269.515625 Z M 208 130 " clip-rule="nonzero"/></clipPath><clipPath id="8ee6376797"><path d="M 32 7.488281 L 147 7.488281 L 147 89 L 32 89 Z M 32 7.488281 " clip-rule="nonzero"/></clipPath><clipPath id="e6deed338a"><path d="M 7.769531 104 L 50 104 L 50 148 L 7.769531 148 Z M 7.769531 104 " clip-rule="nonzero"/></clipPath></defs><path fill="#fec3aa" d="M 227.753906 235.550781 L 208.941406 232.777344 C 208.941406 232.777344 194.359375 229.46875 186.574219 230.359375 C 178.785156 231.25 173.238281 230.644531 168.683594 234.308594 C 164.132812 237.96875 165.625 241.738281 165.625 241.738281 C 165.625 241.738281 162.035156 245.402344 162.496094 246.933594 C 162.957031 248.460938 162.390625 254.078125 163.847656 255.429688 C 165.304688 256.78125 165.910156 256.855469 165.910156 256.855469 C 166.585938 258.132812 167.867188 258.988281 169.289062 259.09375 C 171.707031 259.273438 179.671875 255.609375 182.089844 255.679688 C 184.511719 255.75 195.605469 256.675781 201.332031 255.894531 C 207.058594 255.113281 210.117188 253.085938 210.117188 253.085938 L 233.765625 260.515625 C 233.765625 260.515625 232.945312 242.523438 227.753906 235.550781 Z M 227.753906 235.550781 " fill-opacity="1" fill-rule="nonzero"/><path fill="#fec3aa" d="M 94.890625 118.550781 C 93.398438 116.664062 91.761719 114.886719 89.984375 113.25 C 87.457031 111.117188 85.253906 105.285156 87.851562 103.789062 C 90.445312 102.296875 99.726562 110.40625 102.859375 114.425781 C 105.988281 118.441406 113.882812 129.929688 116.230469 136.367188 C 118.578125 142.804688 116.65625 146.109375 117.472656 147.640625 L 123.910156 160.195312 C 123.910156 160.195312 118.363281 164.210938 112.28125 166.703125 C 106.199219 169.191406 103.496094 169.296875 103.496094 169.296875 C 103.496094 169.296875 97.238281 157.207031 96.242188 156.601562 C 95.246094 155.996094 91.050781 154.007812 89.519531 151.585938 C 88.5625 149.988281 87.851562 148.28125 87.386719 146.464844 C 87.386719 146.464844 82.65625 145.398438 80.667969 141.628906 C 78.675781 137.859375 77.535156 134.835938 78.246094 132.347656 C 78.960938 129.859375 80.3125 128.472656 82.195312 127.867188 C 82.871094 125.980469 84.117188 124.347656 85.789062 123.207031 C 88.453125 121.5 88.632812 121.855469 88.917969 121.964844 C 89.203125 122.070312 89.984375 117.839844 94.890625 118.550781 Z M 94.890625 118.550781 " fill-opacity="1" fill-rule="nonzero"/><path fill="#a3dfbe" d="M 103.390625 169.582031 C 103 169.582031 121.597656 225.238281 130.167969 233.417969 C 138.742188 241.597656 158.550781 232.316406 162.566406 229.007812 C 166.585938 225.699219 183.726562 208.097656 183.726562 208.097656 C 183.726562 208.097656 187.996094 215.957031 189.238281 220.578125 C 190.484375 225.203125 193.507812 229.507812 193.257812 229.898438 C 193.007812 230.289062 214.3125 233.667969 218.578125 234.023438 C 221.671875 234.34375 224.730469 234.875 227.753906 235.550781 C 227.753906 235.550781 234.761719 251.804688 233.765625 260.515625 C 233.765625 260.515625 259.300781 267.167969 274.449219 268.269531 C 289.597656 269.371094 300.765625 262.898438 303.679688 255.074219 C 306.597656 247.253906 305.886719 233.3125 305.28125 230.109375 C 304.675781 226.910156 297.8125 164.960938 297.8125 164.960938 C 297.8125 164.960938 293.546875 148.566406 281.207031 144.652344 C 268.867188 140.742188 256.382812 133.023438 254.78125 130.109375 C 253.183594 127.191406 254.640625 125.304688 252.933594 124.453125 C 251.226562 123.597656 224.339844 121.535156 224.339844 121.535156 C 224.339844 121.535156 221.992188 121.644531 222.136719 123.351562 C 222.277344 125.058594 221.390625 127.761719 219.433594 128.507812 C 217.476562 129.253906 204.035156 130.710938 199.519531 130.710938 C 195 130.710938 183.230469 133.878906 178.820312 140.101562 C 174.410156 146.324219 165.128906 168.230469 161.964844 173.246094 C 158.796875 178.261719 142.867188 196.753906 142.867188 196.753906 L 124.160156 160.300781 C 124.160156 160.300781 107.660156 169.582031 103.390625 169.582031 Z M 103.390625 169.582031 " fill-opacity="1" fill-rule="nonzero"/><path fill="#fec3aa" d="M 216.871094 62.289062 C 216.871094 62.289062 204.746094 64.03125 202.363281 71.890625 C 199.980469 79.75 202.574219 85.832031 202.574219 88.785156 C 202.574219 91.734375 203.109375 103.96875 204.105469 106.671875 C 205.101562 109.375 210.648438 118.796875 217.191406 120.648438 C 223.734375 122.496094 228.644531 122.175781 228.644531 122.175781 L 251.441406 123.917969 C 251.441406 123.917969 249.269531 113.214844 250.550781 106.777344 C 250.550781 106.777344 250.015625 106.777344 252.863281 103.828125 C 255.707031 100.875 257.769531 97.425781 257.449219 93.585938 C 257.128906 89.742188 254.390625 88.355469 252.433594 88.675781 C 250.480469 88.996094 248.0625 90.847656 248.0625 90.847656 C 248.0625 90.847656 241.304688 89.460938 237.355469 77.652344 C 233.410156 65.84375 229.035156 58.09375 222.632812 57.914062 C 218.402344 57.808594 216.871094 62.289062 216.871094 62.289062 Z M 216.871094 62.289062 " fill-opacity="1" fill-rule="nonzero"/><path fill="#734c4c" d="M 202.328125 86.933594 C 202.328125 86.933594 195.25 81.992188 197.277344 71.570312 C 199.304688 61.152344 206.878906 52.1875 211.289062 49.203125 C 215.699219 46.214844 224.339844 42.480469 238.316406 42.835938 C 252.292969 43.191406 256.878906 48.738281 259.582031 51.90625 C 262.285156 55.070312 265.914062 59.90625 265.914062 59.90625 C 265.914062 59.90625 269.542969 54.890625 274.304688 56.5625 C 279.070312 58.234375 285.6875 61.398438 288.921875 69.4375 C 292.160156 77.472656 289.777344 91.128906 287.644531 95.539062 C 285.507812 99.949219 282.984375 111.367188 284.191406 116.878906 C 285.402344 122.390625 288.921875 126.089844 289.207031 125.910156 C 289.492188 125.734375 285.6875 128.613281 278.324219 126.089844 C 270.964844 123.5625 265.273438 112.289062 264.136719 107.453125 C 263.460938 104.609375 263.28125 101.691406 263.566406 98.777344 C 263.566406 98.777344 254.179688 107.5625 252.683594 109.054688 C 251.191406 110.546875 250.445312 114.746094 250.445312 114.746094 L 250.550781 106.777344 C 250.550781 106.777344 256.382812 101.300781 257.234375 96.820312 C 258.089844 92.339844 256.953125 89.566406 254.425781 88.710938 C 251.902344 87.859375 248.0625 90.847656 248.0625 90.847656 C 248.0625 90.847656 241.660156 88.070312 238.210938 79.5 C 234.761719 70.929688 232.804688 62.714844 229.070312 62.148438 C 225.335938 61.578125 220.675781 63.285156 220.675781 63.285156 C 220.675781 63.285156 216.695312 61.507812 214.167969 61.96875 C 211.644531 62.429688 205.3125 65.3125 203.429688 70.078125 C 201.542969 74.84375 200.941406 80.425781 202.328125 86.933594 Z M 202.328125 86.933594 " fill-opacity="1" fill-rule="nonzero"/><path fill="#000000" d="M 265.769531 170.757812 C 265.878906 187.898438 267.796875 205.039062 269.398438 222.109375 C 269.824219 226.519531 270.253906 230.964844 270.644531 235.410156 C 270.75 236.617188 272.636719 236.617188 272.527344 235.410156 C 271.070312 218.339844 269.078125 201.269531 268.117188 184.128906 C 267.871094 179.683594 267.691406 175.238281 267.65625 170.757812 C 267.65625 169.546875 265.769531 169.546875 265.769531 170.757812 Z M 265.769531 170.757812 " fill-opacity="1" fill-rule="nonzero"/><path fill="#000000" d="M 103.890625 137.574219 C 101.933594 133.804688 98.269531 131.53125 95.671875 128.328125 C 95.035156 127.546875 94.25 126.515625 94.324219 125.484375 C 94.394531 124.453125 95.53125 123.882812 96.492188 123.847656 C 97.453125 123.8125 98.839844 124.273438 99.90625 124.703125 C 100.9375 125.09375 101.933594 125.554688 102.894531 126.054688 C 105.132812 127.191406 107.160156 128.757812 108.832031 130.640625 C 109.613281 131.566406 110.929688 130.214844 110.148438 129.289062 C 108.476562 127.371094 106.449219 125.769531 104.207031 124.59375 C 103.070312 123.992188 101.863281 123.457031 100.652344 122.996094 C 99.40625 122.496094 98.128906 122 96.777344 121.964844 C 94.25 121.855469 91.941406 123.8125 92.542969 126.480469 C 93.148438 129.148438 95.210938 130.746094 96.882812 132.347656 C 98.554688 133.949219 100.972656 136.046875 102.253906 138.535156 C 102.785156 139.601562 104.421875 138.644531 103.890625 137.574219 Z M 103.890625 137.574219 " fill-opacity="1" fill-rule="nonzero"/><path fill="#000000" d="M 97.378906 119.722656 C 95.671875 116.167969 92.257812 114.210938 89.839844 111.257812 C 88.597656 109.765625 87.246094 107.417969 87.851562 105.390625 C 88.207031 104.21875 89.34375 104.714844 90.160156 105.105469 C 90.871094 105.460938 91.546875 105.855469 92.222656 106.28125 C 98.304688 110.015625 103.355469 115.847656 107.265625 121.75 C 109.933594 125.910156 112.28125 130.285156 114.238281 134.835938 C 115.480469 137.648438 116.621094 140.667969 116.371094 143.800781 C 116.230469 144.757812 116.195312 145.753906 116.335938 146.75 C 116.511719 147.675781 117.046875 148.421875 117.472656 149.242188 C 119.394531 152.832031 121.171875 156.53125 123.09375 160.121094 C 125.546875 164.816406 128.144531 169.40625 130.84375 173.957031 C 131.449219 175.023438 133.085938 174.0625 132.445312 173.03125 C 129.921875 168.730469 127.46875 164.390625 125.121094 159.980469 C 123.164062 156.316406 121.386719 152.546875 119.429688 148.886719 C 118.96875 148.066406 118.292969 147.179688 118.148438 146.253906 C 118.007812 145.328125 118.257812 144.121094 118.292969 143.015625 C 118.363281 139.636719 116.976562 136.367188 115.589844 133.308594 C 113.382812 128.363281 110.789062 123.386719 107.621094 118.976562 C 105.347656 115.777344 102.785156 112.789062 99.941406 110.050781 C 97.417969 107.597656 94.570312 105.214844 91.371094 103.613281 C 89.839844 102.867188 87.601562 102.085938 86.464844 103.898438 C 85.324219 105.710938 85.929688 108.199219 86.78125 109.945312 C 88.84375 114.28125 93.683594 116.34375 95.746094 120.648438 C 96.277344 121.75 97.878906 120.789062 97.378906 119.722656 Z M 97.378906 119.722656 " fill-opacity="1" fill-rule="nonzero"/><path fill="#000000" d="M 82.410156 127.121094 C 79.671875 126.65625 78 129.539062 77.5 131.851562 C 76.789062 134.945312 77.75 137.929688 79.207031 140.632812 C 79.847656 141.808594 80.488281 143.195312 81.378906 144.191406 C 81.804688 144.617188 82.230469 144.972656 82.730469 145.328125 C 84.222656 146.464844 86.25 147.605469 88.171875 147 C 90.089844 146.394531 91.15625 144.191406 90.375 142.09375 C 89.984375 140.953125 88.132812 141.453125 88.5625 142.589844 C 88.773438 143.125 88.988281 143.800781 88.738281 144.367188 C 88.488281 144.9375 87.386719 145.363281 86.640625 145.257812 C 85.289062 145.007812 83.6875 143.976562 82.765625 142.910156 C 81.839844 141.84375 81.519531 140.953125 80.984375 139.992188 C 80.238281 138.714844 79.671875 137.328125 79.316406 135.867188 C 78.996094 134.375 79.066406 132.847656 79.5625 131.421875 C 79.882812 130.535156 80.738281 128.757812 81.910156 128.96875 C 83.085938 129.183594 83.617188 127.332031 82.410156 127.121094 Z M 82.410156 127.121094 " fill-opacity="1" fill-rule="nonzero"/><path fill="#000000" d="M 88.597656 121.289062 C 85.824219 121.429688 83.617188 123.136719 82.515625 125.625 C 81.414062 128.117188 81.734375 131.457031 82.941406 134.160156 C 84.1875 136.757812 85.789062 139.175781 87.707031 141.34375 C 88.988281 142.839844 90.625 144.757812 92.757812 144.402344 C 94.25 144.15625 95.566406 143.515625 96.207031 142.019531 C 96.847656 140.527344 96.632812 139.105469 95.710938 138.285156 C 94.785156 137.46875 93.46875 138.785156 94.359375 139.601562 C 95.246094 140.421875 94.179688 142.164062 93.113281 142.449219 C 92.046875 142.734375 91.976562 142.695312 91.300781 142.234375 C 89.203125 140.777344 87.636719 138.359375 86.285156 136.261719 C 84.933594 134.160156 83.121094 130.820312 83.761719 127.832031 C 84.257812 125.414062 86 123.28125 88.597656 123.171875 C 89.804688 123.101562 89.804688 121.21875 88.597656 121.289062 Z M 88.597656 121.289062 " fill-opacity="1" fill-rule="nonzero"/><path fill="#000000" d="M 99.621094 136.792969 C 99.65625 137.71875 99.371094 138.925781 98.269531 139 C 96.242188 139.175781 94.570312 136.898438 93.574219 135.441406 C 91.371094 132.3125 89.09375 128.472656 89.414062 124.523438 C 89.558594 122.851562 90.269531 120.578125 91.941406 119.828125 C 93.042969 119.332031 94.285156 119.4375 95.316406 120.042969 C 96.3125 120.753906 97.238281 119.117188 96.277344 118.40625 C 95.316406 117.695312 93.683594 117.589844 92.367188 117.765625 C 91.050781 117.945312 89.273438 119.332031 88.488281 120.96875 C 87.03125 123.957031 87.316406 127.617188 88.632812 130.570312 C 89.519531 132.5625 90.625 134.480469 91.867188 136.296875 C 93.328125 138.394531 95.28125 140.8125 98.054688 140.882812 C 100.832031 140.953125 101.578125 138.890625 101.507812 136.792969 C 101.46875 135.585938 99.585938 135.585938 99.621094 136.792969 Z M 99.621094 136.792969 " fill-opacity="1" fill-rule="nonzero"/><path fill="#000000" d="M 86.855469 146.539062 C 88.453125 151.125 90.800781 156.03125 95.992188 157.207031 L 95.425781 156.78125 C 98.304688 161.722656 101.1875 166.628906 103.425781 171.894531 C 103.890625 173.03125 105.523438 172.070312 105.0625 170.96875 C 102.929688 165.953125 100.226562 161.332031 97.523438 156.636719 C 97.203125 156.03125 97.023438 155.570312 96.347656 155.355469 C 95.105469 154.964844 93.929688 154.324219 92.933594 153.507812 C 90.625 151.550781 89.628906 148.8125 88.667969 146.039062 C 88.277344 144.902344 86.464844 145.398438 86.855469 146.539062 Z M 86.855469 146.539062 " fill-opacity="1" fill-rule="nonzero"/><path fill="#000000" d="M 176.011719 233.132812 C 173.628906 234.058594 171.386719 235.339844 169.324219 236.867188 C 167.441406 238.359375 165.769531 240.066406 164.273438 241.953125 C 162.496094 244.230469 160.613281 247.609375 163.03125 250.167969 C 163.847656 251.058594 165.164062 249.707031 164.347656 248.816406 C 162.566406 246.96875 164.984375 244.121094 166.089844 242.699219 C 168.828125 239.25 172.417969 236.582031 176.507812 234.945312 C 177.644531 234.484375 177.148438 232.671875 176.011719 233.132812 Z M 176.011719 233.132812 " fill-opacity="1" fill-rule="nonzero"/><path fill="#000000" d="M 178.890625 238.433594 C 176.4375 239.429688 174.125 240.671875 171.992188 242.203125 C 169.894531 243.554688 167.902344 245.046875 166.015625 246.648438 C 163.953125 248.496094 161.925781 251.164062 162.53125 254.152344 C 162.921875 256.035156 164.488281 257.136719 166.300781 257.566406 C 167.476562 257.8125 167.972656 256 166.800781 255.75 C 165.625 255.503906 164.238281 254.472656 164.308594 252.800781 C 164.382812 251.769531 164.984375 250.628906 165.695312 249.707031 C 167.296875 247.679688 169.574219 246.183594 171.671875 244.726562 C 173.769531 243.269531 176.613281 241.347656 179.390625 240.28125 C 180.492188 239.820312 180.027344 238.003906 178.890625 238.433594 Z M 178.890625 238.433594 " fill-opacity="1" fill-rule="nonzero"/><path fill="#000000" d="M 182.660156 245.332031 C 179.351562 246.078125 176.296875 247.644531 173.519531 249.597656 C 172.132812 250.558594 170.78125 251.625 169.503906 252.730469 L 167.582031 254.398438 C 167.046875 254.898438 166.089844 255.503906 165.734375 256.179688 C 165.378906 256.855469 165.660156 258.097656 166.160156 258.703125 C 167.332031 260.304688 169.679688 260.054688 171.421875 259.734375 C 174.054688 259.238281 176.613281 258.242188 179.175781 257.386719 C 180.421875 256.925781 181.734375 256.675781 183.085938 256.675781 C 187.175781 256.640625 191.265625 257.03125 195.390625 256.925781 C 198.203125 256.925781 201.011719 256.640625 203.785156 256.179688 C 206.132812 255.75 208.585938 255.039062 210.507812 253.582031 C 211.464844 252.871094 210.542969 251.234375 209.546875 251.945312 C 206.238281 254.472656 201.402344 254.792969 197.382812 254.96875 C 193.363281 255.148438 189.132812 255.003906 184.972656 254.828125 C 183.726562 254.753906 182.449219 254.792969 181.203125 254.933594 C 179.851562 255.113281 178.570312 255.609375 177.289062 256.035156 C 174.800781 256.925781 171.921875 258.132812 169.21875 258.097656 C 168.683594 258.097656 168.007812 258.027344 167.617188 257.566406 C 167.511719 257.386719 167.441406 257.175781 167.476562 256.960938 C 167.441406 256.675781 167.511719 256.855469 167.441406 256.890625 L 167.511719 257.066406 L 168.078125 256.535156 L 169.21875 255.503906 C 170.605469 254.257812 172.027344 253.011719 173.519531 251.910156 C 176.4375 249.742188 179.601562 247.964844 183.160156 247.144531 C 184.367188 246.894531 183.871094 245.082031 182.660156 245.332031 Z M 182.660156 245.332031 " fill-opacity="1" fill-rule="nonzero"/><path fill="#000000" d="M 166.300781 240.496094 C 165.589844 238.929688 166.089844 237.117188 167.121094 235.835938 C 168.152344 234.554688 168.828125 234.554688 169.75 234.128906 C 171.921875 233.097656 174.160156 232.246094 176.472656 231.640625 C 177.789062 231.320312 179.140625 231.175781 180.492188 231.175781 C 182.625 231.070312 184.757812 231.070312 186.855469 231.140625 C 191.800781 231.25 196.78125 231.605469 201.6875 232.246094 C 203.714844 232.492188 205.742188 232.882812 207.734375 233.347656 C 208.691406 233.597656 209.617188 233.988281 210.613281 234.128906 C 218.257812 235.125 225.976562 236.015625 233.695312 236.761719 C 244.503906 237.828125 255.386719 238.289062 266.234375 238.148438 C 275.375 238.003906 284.546875 237.6875 293.6875 237.222656 L 294.1875 237.222656 C 295.394531 237.152344 295.394531 235.265625 294.1875 235.339844 C 286.042969 235.730469 277.863281 236.015625 269.71875 236.191406 C 263.886719 236.335938 258.054688 236.441406 252.222656 236.226562 C 246.390625 236.015625 241.339844 235.585938 235.898438 235.054688 C 227.542969 234.308594 219.183594 233.347656 210.828125 232.28125 L 210.257812 232.207031 C 210.433594 232.246094 209.832031 231.996094 209.6875 231.925781 L 208.445312 231.605469 C 206.382812 231.105469 204.28125 230.714844 202.183594 230.429688 C 197.136719 229.753906 192.085938 229.363281 187 229.257812 C 183.480469 229.1875 179.53125 228.902344 176.082031 229.789062 C 173.804688 230.394531 171.601562 231.214844 169.46875 232.171875 C 167.085938 233.238281 165.09375 234.554688 164.308594 237.222656 C 163.917969 238.609375 164.0625 240.105469 164.664062 241.417969 C 165.164062 242.523438 166.800781 241.5625 166.300781 240.496094 Z M 166.300781 240.496094 " fill-opacity="1" fill-rule="nonzero"/><path fill="#6293f1" d="M 137.992188 181.175781 C 137.992188 181.175781 135.609375 176.339844 134.1875 175.34375 C 132.835938 174.382812 127.679688 173.707031 127.679688 173.707031 C 118.894531 173.496094 14.09375 173.386719 14.09375 173.386719 C 14.09375 173.386719 8.222656 173.566406 9.71875 179.789062 C 11.210938 186.011719 31.980469 249.8125 32.585938 251.804688 C 33.191406 253.796875 36.390625 256.105469 41.9375 255.894531 C 47.484375 255.679688 164.347656 254.4375 164.347656 254.4375 C 156.628906 229.648438 147.84375 205.253906 137.992188 181.175781 Z M 137.992188 181.175781 " fill-opacity="1" fill-rule="nonzero"/><path fill="#000000" d="M 165.269531 254.1875 C 160.398438 238.574219 155.136719 223.105469 149.410156 207.8125 C 146.527344 200.09375 143.542969 192.414062 140.449219 184.769531 C 139.238281 181.746094 138.386719 178.261719 136.003906 175.949219 C 132.125 172.214844 126.542969 172.746094 121.5625 172.710938 L 103.496094 172.605469 L 78.886719 172.605469 L 52.890625 172.535156 L 16.402344 172.535156 C 13.308594 172.535156 9.683594 172.78125 8.722656 176.480469 C 8.152344 178.757812 9.042969 181.140625 9.683594 183.308594 L 12.136719 191.242188 C 14.554688 198.992188 17.042969 206.78125 19.535156 214.535156 C 22.023438 222.285156 24.691406 230.539062 27.285156 238.539062 L 31.589844 251.699219 C 33.296875 256.996094 39.839844 256.890625 44.5 256.78125 L 58.226562 256.605469 L 79.742188 256.320312 L 104.992188 256.035156 L 130.027344 255.75 L 150.582031 255.539062 L 162.710938 255.394531 L 164.347656 255.394531 C 165.554688 255.394531 165.554688 253.511719 164.347656 253.511719 L 157.980469 253.582031 L 141.40625 253.761719 L 118.578125 254.042969 L 93.328125 254.328125 L 69.570312 254.613281 L 51.21875 254.863281 L 42.117188 255.003906 C 39.199219 255.074219 34.46875 254.613281 33.402344 251.269531 C 32.941406 249.777344 32.441406 248.320312 31.980469 246.824219 C 29.882812 240.316406 27.75 233.84375 25.648438 227.335938 C 23.019531 219.121094 20.351562 210.871094 17.753906 202.65625 C 15.691406 196.253906 13.664062 189.890625 11.746094 183.488281 C 11.210938 181.710938 10.324219 179.609375 10.429688 177.726562 C 10.535156 175.839844 12.457031 174.382812 14.164062 174.347656 C 16.972656 174.3125 19.78125 174.382812 22.59375 174.382812 L 41.441406 174.382812 L 66.015625 174.453125 L 91.511719 174.453125 L 113.207031 174.5625 C 117.617188 174.5625 121.992188 174.5625 126.398438 174.632812 C 129.457031 174.667969 132.515625 175.128906 134.792969 177.441406 C 135.753906 178.402344 136.5 179.539062 136.925781 180.820312 C 137.636719 182.988281 138.5625 185.050781 139.417969 187.152344 C 145.425781 202.121094 151.046875 217.203125 156.203125 232.457031 C 158.726562 239.855469 161.109375 247.253906 163.457031 254.683594 C 163.8125 255.824219 165.625 255.324219 165.269531 254.1875 Z M 165.269531 254.1875 " fill-opacity="1" fill-rule="nonzero"/><path fill="#000000" d="M 188.5625 150.414062 C 190.910156 162.078125 189.632812 174.207031 184.832031 185.089844 C 182.730469 189.816406 180.277344 194.335938 180.703125 199.667969 C 180.847656 202.195312 181.378906 204.648438 182.234375 207.03125 C 182.980469 209.128906 184.046875 211.085938 185.042969 213.039062 C 187.78125 218.550781 190.308594 224.171875 191.871094 230.144531 C 192.191406 231.320312 194.003906 230.820312 193.683594 229.648438 C 192.296875 224.347656 190.164062 219.265625 187.746094 214.320312 C 185.613281 209.910156 183.195312 205.714844 182.660156 200.734375 C 182.339844 198.175781 182.589844 195.613281 183.40625 193.160156 C 184.261719 190.601562 185.542969 188.183594 186.609375 185.726562 C 191.515625 174.453125 192.832031 161.972656 190.378906 149.917969 C 190.128906 148.742188 188.316406 149.242188 188.5625 150.414062 Z M 188.5625 150.414062 " fill-opacity="1" fill-rule="nonzero"/><path fill="#000000" d="M 145.355469 195.4375 C 155.171875 185.371094 163.316406 173.386719 169.574219 160.835938 C 172.382812 155.214844 174.230469 149.0625 177.683594 143.800781 C 181.132812 138.535156 185.613281 134.910156 191.230469 132.882812 C 195.710938 131.246094 200.371094 131.601562 205.066406 131.496094 C 208.230469 131.386719 211.359375 131.101562 214.488281 130.640625 C 216.835938 130.285156 219.753906 129.859375 221.601562 128.257812 C 222.5625 127.476562 222.847656 126.410156 222.953125 125.199219 C 222.988281 124.59375 222.742188 123.316406 223.414062 123.066406 C 224.089844 122.816406 225.515625 123.066406 226.332031 123.066406 C 230.171875 123.136719 234.050781 123.316406 237.925781 123.5625 C 241.835938 123.707031 245.75 124.097656 249.625 124.667969 C 250.265625 124.738281 250.871094 124.878906 251.476562 125.023438 C 251.832031 125.09375 252.398438 125.378906 252.542969 125.378906 C 252.683594 125.378906 252.507812 125.519531 252.542969 125.34375 C 252.578125 125.164062 252.363281 124.84375 252.363281 124.84375 C 252.363281 124.84375 252.398438 125.589844 252.398438 125.625 C 252.472656 126.695312 252.683594 127.726562 252.96875 128.757812 C 253.324219 129.964844 253.964844 131.066406 254.816406 131.992188 C 255.671875 132.882812 256.988281 131.53125 256.132812 130.675781 C 254.570312 129.078125 254.535156 126.941406 254.25 124.878906 C 254.105469 123.847656 253.109375 123.492188 252.1875 123.242188 C 248.878906 122.355469 245.25 122.210938 241.835938 121.929688 C 237.570312 121.609375 233.300781 121.394531 229.035156 121.253906 L 224.660156 121.179688 C 223.59375 121.179688 222.3125 121.074219 221.601562 122.070312 C 220.890625 123.066406 221.210938 124.417969 220.996094 125.554688 C 220.785156 126.695312 219.753906 127.332031 218.578125 127.761719 C 215.734375 128.757812 212.570312 129.078125 209.582031 129.324219 C 204.53125 129.789062 199.304688 129.183594 194.253906 130.109375 C 189.203125 131.03125 183.621094 134.125 179.816406 138.109375 C 176.011719 142.09375 173.128906 148.136719 170.746094 153.792969 C 165.164062 167.09375 156.984375 179.683594 147.417969 190.457031 C 146.316406 191.703125 145.175781 192.910156 144.039062 194.121094 C 142.902344 195.328125 144.5 196.324219 145.355469 195.4375 Z M 145.355469 195.4375 " fill-opacity="1" fill-rule="nonzero"/><path fill="#000000" d="M 158.121094 231.746094 C 159.332031 234.128906 162.675781 230.074219 163.671875 229.222656 C 165.875 227.300781 168.117188 225.417969 170.320312 223.425781 C 175.300781 218.980469 180.136719 214.179688 183.726562 208.523438 C 184.367188 207.492188 182.730469 206.53125 182.089844 207.5625 C 178.925781 212.578125 174.695312 216.882812 170.320312 220.898438 C 168.292969 222.75 166.230469 224.527344 164.167969 226.304688 L 161.609375 228.546875 L 160.398438 229.613281 L 159.863281 230.109375 L 159.617188 230.359375 C 159.332031 230.539062 159.367188 230.679688 159.757812 230.785156 C 159.226562 229.71875 157.589844 230.679688 158.121094 231.746094 Z M 158.121094 231.746094 " fill-opacity="1" fill-rule="nonzero"/><g clip-path="url(#3944df9747)"><path fill="#000000" d="M 255.992188 132.0625 C 260.542969 136.046875 265.628906 138.960938 271.175781 141.273438 C 276.726562 143.585938 283.019531 145.398438 287.75 149.558594 C 291.910156 153.257812 295.21875 158.414062 296.25 163.929688 C 296.425781 164.921875 296.535156 165.917969 296.675781 166.914062 C 297.566406 172.855469 298.417969 178.792969 299.234375 184.730469 C 300.410156 193.375 301.546875 201.980469 302.542969 210.621094 C 303.539062 219.265625 304.394531 227.015625 304.890625 235.230469 C 305.28125 241.5625 305.636719 248.070312 303.148438 254.042969 C 299.34375 263.253906 289.742188 266.492188 280.496094 267.203125 C 272.136719 267.84375 263.816406 266.242188 255.636719 264.570312 C 246.390625 262.613281 237.214844 260.269531 228.109375 257.777344 C 222.382812 256.179688 216.660156 254.542969 211.003906 252.835938 L 210.152344 252.550781 C 208.976562 252.195312 208.480469 254.007812 209.652344 254.363281 C 213.8125 255.679688 218.046875 256.890625 222.242188 258.097656 C 231.203125 260.625 240.238281 263.042969 249.304688 265.105469 C 257.664062 266.988281 266.269531 268.945312 274.875 269.230469 C 283.480469 269.515625 294.898438 267.878906 301.261719 260.625 C 306.101562 255.113281 307.203125 247.75 307.023438 240.636719 C 306.847656 233.523438 306.0625 225.378906 305.246094 217.804688 C 304.285156 208.773438 303.148438 199.738281 301.9375 190.742188 C 300.980469 183.664062 299.984375 176.589844 298.953125 169.546875 C 298.703125 167.769531 298.453125 166.027344 298.167969 164.246094 C 297.671875 161.226562 296.605469 158.308594 295.074219 155.640625 C 292.089844 150.34375 287.464844 146.109375 281.917969 143.621094 C 276.332031 141.167969 270.429688 139.320312 265.09375 136.296875 C 262.320312 134.695312 259.726562 132.847656 257.308594 130.746094 C 256.417969 129.929688 255.066406 131.28125 255.992188 132.0625 Z M 255.992188 132.0625 " fill-opacity="1" fill-rule="nonzero"/></g><path fill="#000000" d="M 181.949219 194.015625 C 182.804688 186.191406 178.144531 209.269531 175.335938 216.597656 L 183.585938 206.886719 C 183.585938 206.886719 181.238281 200.558594 181.949219 194.015625 Z M 181.949219 194.015625 " fill-opacity="1" fill-rule="nonzero"/><path fill="#000000" d="M 267.90625 194.085938 C 267.90625 194.085938 269.753906 224.777344 264.777344 230.785156 C 261.789062 234.308594 257.449219 236.40625 252.828125 236.511719 C 252.828125 236.511719 251.9375 237.542969 261.183594 237.046875 C 270.429688 236.546875 272.671875 240.28125 270.890625 228.046875 C 269.113281 215.8125 267.90625 194.085938 267.90625 194.085938 Z M 267.90625 194.085938 " fill-opacity="1" fill-rule="nonzero"/><path fill="#000000" d="M 225.441406 130.25 C 231.773438 131.03125 238.175781 130.820312 244.46875 129.714844 C 245.679688 129.503906 245.179688 127.6875 243.972656 127.902344 C 237.855469 128.96875 231.59375 129.113281 225.441406 128.363281 C 224.234375 128.222656 224.234375 130.109375 225.441406 130.25 Z M 225.441406 130.25 " fill-opacity="1" fill-rule="nonzero"/><path fill="#000000" d="M 216.195312 151.800781 C 230.5625 151.480469 244.929688 150.273438 259.15625 148.171875 C 260.332031 147.996094 259.832031 146.144531 258.660156 146.324219 C 244.613281 148.421875 230.421875 149.632812 216.195312 149.917969 C 214.988281 149.953125 214.988281 151.835938 216.195312 151.800781 Z M 216.195312 151.800781 " fill-opacity="1" fill-rule="nonzero"/><path fill="#000000" d="M 226.757812 236.191406 C 229.746094 243.589844 231.808594 251.304688 232.910156 259.199219 C 233.054688 260.410156 234.867188 259.914062 234.726562 258.703125 C 233.621094 250.808594 231.558594 243.089844 228.574219 235.695312 C 228.144531 234.589844 226.296875 235.054688 226.757812 236.191406 Z M 226.757812 236.191406 " fill-opacity="1" fill-rule="nonzero"/><path fill="#000000" d="M 104.636719 171.074219 C 105.738281 169.796875 107.835938 169.617188 109.367188 169.121094 C 111.144531 168.515625 112.921875 167.839844 114.628906 167.058594 C 118.113281 165.457031 121.386719 163.429688 124.410156 161.046875 C 125.367188 160.300781 124.054688 158.984375 123.09375 159.730469 C 120 162.148438 116.65625 164.140625 113.0625 165.707031 C 111.320312 166.453125 109.542969 167.09375 107.730469 167.625 C 106.128906 168.089844 104.421875 168.410156 103.320312 169.761719 C 102.21875 171.113281 103.851562 172 104.636719 171.074219 Z M 104.636719 171.074219 " fill-opacity="1" fill-rule="nonzero"/><path fill="#000000" d="M 95.710938 142.695312 C 98.695312 142.734375 101.648438 143.300781 104.421875 144.402344 C 104.921875 144.546875 105.453125 144.261719 105.558594 143.726562 C 105.667969 143.195312 105.417969 142.695312 104.882812 142.589844 C 101.933594 141.453125 98.839844 140.847656 95.671875 140.8125 C 94.5 140.8125 94.5 142.695312 95.710938 142.695312 Z M 95.710938 142.695312 " fill-opacity="1" fill-rule="nonzero"/><path fill="#000000" d="M 200.121094 78.257812 C 200.796875 82.0625 201.261719 85.902344 201.507812 89.777344 C 201.722656 93.550781 201.507812 97.355469 201.828125 101.089844 C 202.21875 105.996094 204.355469 111.046875 207.875 114.496094 C 211.394531 117.945312 214.597656 121.144531 218.863281 122.425781 C 224.199219 124.027344 229.25 122.035156 233.695312 119.011719 C 236.539062 117.128906 239.136719 114.886719 241.445312 112.363281 C 242.335938 111.4375 243.117188 110.40625 243.757812 109.304688 C 244.328125 108.273438 242.691406 107.3125 242.121094 108.378906 C 240.523438 111.257812 237.640625 113.675781 235.082031 115.667969 C 230.917969 118.90625 225.796875 122.140625 220.285156 120.859375 C 216.125 119.867188 212.675781 116.558594 209.6875 113.640625 C 208.691406 112.683594 207.839844 111.863281 207.164062 110.726562 C 205.457031 107.773438 204.035156 104.785156 203.714844 101.300781 C 203.394531 97.816406 203.644531 93.621094 203.394531 89.777344 C 203.144531 85.761719 202.648438 81.742188 201.9375 77.757812 C 201.722656 76.585938 199.910156 77.082031 200.121094 78.257812 Z M 200.121094 78.257812 " fill-opacity="1" fill-rule="nonzero"/><path fill="#000000" d="M 248.84375 92.089844 C 250.015625 90.347656 252.472656 87.859375 254.710938 89.53125 C 256.953125 91.203125 256.878906 93.761719 256.632812 95.859375 C 256.277344 98.207031 255.171875 100.375 253.503906 102.046875 C 251.832031 103.753906 249.625 105.710938 247.171875 106.03125 C 245.960938 106.171875 245.960938 108.058594 247.171875 107.917969 C 250.335938 107.523438 253.183594 105.25 255.246094 102.9375 C 257.308594 100.660156 258.515625 97.746094 258.585938 94.6875 C 258.585938 91.984375 257.484375 88.390625 254.675781 87.394531 C 251.867188 86.402344 248.84375 88.710938 247.242188 91.128906 C 246.566406 92.160156 248.203125 93.085938 248.84375 92.089844 Z M 248.84375 92.089844 " fill-opacity="1" fill-rule="nonzero"/><path fill="#000000" d="M 254.605469 92.160156 C 252.863281 91.558594 251.332031 93.121094 250.335938 94.332031 C 249.304688 95.613281 248.523438 97.035156 247.988281 98.5625 C 247.847656 99.0625 248.167969 99.558594 248.628906 99.703125 C 248.628906 99.703125 248.628906 99.703125 248.664062 99.703125 C 249.128906 99.84375 249.625 99.59375 249.769531 99.132812 C 249.769531 99.097656 249.769531 99.097656 249.804688 99.0625 C 249.875 98.882812 249.910156 98.742188 249.980469 98.597656 L 250.089844 98.3125 C 250.050781 98.421875 250.089844 98.3125 250.125 98.277344 L 250.550781 97.390625 L 251.046875 96.535156 L 251.367188 96.109375 L 251.476562 95.96875 C 251.476562 95.96875 251.652344 95.71875 251.546875 95.824219 C 251.9375 95.328125 252.398438 94.828125 252.863281 94.402344 L 253.074219 94.1875 C 253.003906 94.261719 253.109375 94.1875 253.148438 94.1875 L 253.394531 94.011719 L 253.464844 94.011719 L 253.714844 93.941406 L 254 93.941406 C 253.859375 93.941406 254.070312 93.976562 254.105469 94.011719 C 254.605469 94.152344 255.136719 93.867188 255.246094 93.371094 C 255.386719 92.875 255.101562 92.339844 254.605469 92.199219 Z M 254.605469 92.160156 " fill-opacity="1" fill-rule="nonzero"/><path fill="#000000" d="M 250.300781 96.964844 C 250.480469 97.035156 250.195312 96.890625 250.300781 96.964844 L 250.410156 97.035156 C 250.371094 96.964844 250.300781 96.964844 250.410156 97.035156 L 250.410156 97.105469 C 250.480469 97.140625 250.445312 97.140625 250.371094 97.035156 L 250.550781 97.320312 C 250.550781 97.355469 250.585938 97.425781 250.585938 97.460938 C 250.585938 97.496094 250.621094 97.675781 250.65625 97.78125 L 250.65625 98.242188 C 250.65625 98.277344 250.621094 98.492188 250.65625 98.3125 C 250.691406 98.136719 250.621094 98.386719 250.621094 98.421875 C 250.585938 98.632812 250.515625 98.8125 250.445312 99.027344 L 250.371094 99.167969 L 250.230469 99.417969 L 250.125 99.558594 L 249.910156 99.808594 L 249.804688 99.878906 L 249.734375 99.949219 L 249.660156 99.949219 L 249.519531 100.058594 C 249.058594 100.304688 248.914062 100.875 249.164062 101.300781 C 249.164062 101.300781 249.164062 101.300781 249.164062 101.335938 C 249.449219 101.765625 249.980469 101.90625 250.445312 101.691406 C 251.546875 101.050781 252.292969 99.949219 252.472656 98.671875 C 252.683594 97.320312 252.257812 95.539062 250.765625 95.113281 C 250.265625 94.972656 249.769531 95.21875 249.589844 95.71875 C 249.589844 95.71875 249.589844 95.753906 249.589844 95.753906 C 249.449219 96.25 249.734375 96.785156 250.230469 96.964844 C 250.265625 96.964844 250.265625 96.964844 250.300781 96.964844 Z M 250.300781 96.964844 " fill-opacity="1" fill-rule="nonzero"/><path fill="#000000" d="M 207.414062 81.917969 L 207.910156 81.636719 L 208.054688 81.5625 C 208.160156 81.492188 207.875 81.636719 208.015625 81.5625 L 208.265625 81.492188 L 208.800781 81.351562 C 208.941406 81.316406 208.800781 81.386719 208.765625 81.351562 L 209.832031 81.351562 L 210.117188 81.421875 L 210.363281 81.527344 C 210.507812 81.5625 210.363281 81.527344 210.328125 81.492188 L 210.472656 81.5625 L 211.003906 81.847656 C 211.429688 82.132812 212 81.992188 212.285156 81.527344 C 212.5 81.066406 212.355469 80.496094 211.929688 80.210938 C 210.257812 79.144531 208.125 79.144531 206.488281 80.25 C 206.027344 80.53125 205.882812 81.101562 206.132812 81.5625 C 206.382812 81.992188 206.949219 82.167969 207.414062 81.917969 C 207.414062 81.882812 207.414062 81.882812 207.414062 81.882812 Z M 207.414062 81.917969 " fill-opacity="1" fill-rule="nonzero"/><path fill="#000000" d="M 209.617188 88.890625 C 209.832031 89.101562 209.972656 89.386719 210.042969 89.671875 C 210.257812 90.277344 210.328125 90.953125 210.292969 91.59375 C 210.292969 91.878906 210.222656 92.160156 210.078125 92.410156 C 209.972656 92.660156 209.722656 92.875 209.441406 92.910156 C 209.011719 92.910156 208.65625 92.695312 208.445312 92.339844 C 208.160156 91.914062 208.015625 91.378906 208.054688 90.882812 C 208.054688 90.382812 208.160156 89.851562 208.335938 89.386719 C 208.371094 89.210938 208.445312 89.03125 208.585938 88.925781 C 208.726562 88.785156 208.941406 88.675781 209.15625 88.675781 C 209.332031 88.675781 209.476562 88.785156 209.617188 88.890625 Z M 209.617188 88.890625 " fill-opacity="1" fill-rule="nonzero"/><path fill="#000000" d="M 209.121094 89.386719 L 209.226562 89.566406 L 209.332031 89.742188 L 209.296875 89.742188 C 209.332031 89.777344 209.332031 89.816406 209.332031 89.851562 C 209.402344 89.957031 209.441406 90.097656 209.476562 90.242188 C 209.511719 90.382812 209.546875 90.5625 209.546875 90.703125 C 209.582031 91.023438 209.617188 91.34375 209.582031 91.664062 L 209.582031 91.769531 C 209.546875 91.84375 209.546875 91.914062 209.511719 91.984375 L 209.511719 92.089844 C 209.546875 91.984375 209.476562 92.089844 209.476562 92.125 L 209.476562 92.199219 C 209.441406 92.269531 209.546875 92.160156 209.476562 92.199219 L 209.402344 92.269531 C 209.402344 92.269531 209.511719 92.199219 209.441406 92.234375 L 209.332031 92.304688 C 209.367188 92.269531 209.441406 92.269531 209.367188 92.269531 C 209.296875 92.269531 209.296875 92.234375 209.367188 92.269531 L 209.226562 92.269531 L 209.121094 92.160156 C 209.085938 92.125 209.121094 92.160156 209.121094 92.199219 C 209.121094 92.234375 209.085938 92.125 209.085938 92.089844 C 209.011719 92.019531 208.976562 91.949219 208.941406 91.878906 C 208.941406 91.878906 208.90625 91.804688 208.941406 91.84375 C 208.976562 91.878906 208.90625 91.804688 208.90625 91.804688 C 208.90625 91.804688 208.871094 91.664062 208.871094 91.59375 C 208.871094 91.523438 208.835938 91.449219 208.800781 91.378906 L 208.800781 90.808594 C 208.800781 90.773438 208.835938 90.597656 208.800781 90.667969 C 208.765625 90.738281 208.835938 90.492188 208.871094 90.417969 C 208.90625 90.242188 208.941406 90.027344 209.011719 89.851562 C 209.011719 89.777344 209.046875 89.671875 209.085938 89.601562 C 209.121094 89.53125 209.085938 89.601562 209.085938 89.636719 C 209.085938 89.671875 209.121094 89.53125 209.046875 89.601562 C 208.976562 89.671875 209.121094 89.566406 209.121094 89.53125 C 209.121094 89.496094 209.046875 89.636719 209.121094 89.566406 C 209.121094 89.53125 209.121094 89.53125 209.15625 89.53125 C 209.011719 89.601562 209.15625 89.566406 209.191406 89.53125 C 209.226562 89.496094 209.046875 89.566406 209.085938 89.496094 L 209.296875 89.636719 C 209.617188 89.851562 210.042969 89.742188 210.222656 89.421875 C 210.222656 89.421875 210.257812 89.386719 210.257812 89.386719 C 210.433594 89.066406 210.328125 88.640625 210.007812 88.429688 C 209.582031 88.070312 208.976562 88.035156 208.480469 88.285156 C 208.050781 88.535156 207.734375 88.925781 207.660156 89.421875 C 207.304688 90.3125 207.269531 91.273438 207.554688 92.160156 C 207.839844 93.050781 208.65625 93.976562 209.722656 93.726562 C 210.792969 93.476562 211.039062 92.269531 211.039062 91.34375 C 211.039062 90.808594 210.96875 90.277344 210.828125 89.777344 C 210.71875 89.316406 210.472656 88.890625 210.152344 88.535156 C 209.867188 88.25 209.441406 88.25 209.15625 88.535156 C 208.941406 88.785156 208.941406 89.140625 209.121094 89.386719 Z M 209.121094 89.386719 " fill-opacity="1" fill-rule="nonzero"/><path fill="#000000" d="M 228.394531 87.324219 C 228.609375 87.539062 228.75 87.789062 228.820312 88.070312 C 229.035156 88.675781 229.105469 89.351562 229.070312 89.992188 C 229.070312 90.277344 229 90.5625 228.855469 90.808594 C 228.75 91.058594 228.5 91.273438 228.21875 91.308594 C 227.824219 91.34375 227.433594 91.128906 227.222656 90.773438 C 226.9375 90.347656 226.828125 89.816406 226.828125 89.316406 C 226.828125 88.785156 226.9375 88.285156 227.113281 87.789062 C 227.148438 87.609375 227.222656 87.433594 227.363281 87.324219 C 227.503906 87.183594 227.71875 87.113281 227.933594 87.113281 C 228.109375 87.113281 228.253906 87.21875 228.394531 87.324219 Z M 228.394531 87.324219 " fill-opacity="1" fill-rule="nonzero"/><path fill="#000000" d="M 227.898438 87.824219 L 228.003906 87.964844 L 228.109375 88.144531 C 228.144531 88.214844 228.074219 88.144531 228.074219 88.109375 C 228.109375 88.144531 228.109375 88.179688 228.109375 88.214844 C 228.179688 88.355469 228.21875 88.5 228.253906 88.640625 C 228.289062 88.785156 228.324219 88.925781 228.324219 89.066406 C 228.359375 89.386719 228.394531 89.707031 228.359375 90.027344 L 228.359375 90.136719 C 228.324219 90.207031 228.324219 90.277344 228.289062 90.347656 L 228.289062 90.453125 C 228.289062 90.347656 228.253906 90.453125 228.253906 90.453125 C 228.253906 90.492188 228.253906 90.492188 228.21875 90.527344 C 228.179688 90.632812 228.289062 90.492188 228.21875 90.527344 L 228.144531 90.597656 C 228.144531 90.597656 228.21875 90.5625 228.179688 90.597656 L 228.109375 90.597656 L 228.003906 90.527344 C 227.96875 90.527344 227.898438 90.453125 227.96875 90.492188 L 227.859375 90.417969 C 227.859375 90.382812 227.824219 90.382812 227.824219 90.347656 L 227.683594 90.136719 C 227.683594 90.136719 227.648438 90.027344 227.683594 90.097656 L 227.683594 90.027344 C 227.683594 89.957031 227.648438 89.921875 227.648438 89.851562 C 227.613281 89.777344 227.613281 89.671875 227.578125 89.601562 L 227.578125 89.03125 C 227.578125 88.996094 227.613281 88.820312 227.578125 88.925781 C 227.613281 88.820312 227.613281 88.746094 227.613281 88.640625 C 227.683594 88.464844 227.71875 88.285156 227.789062 88.109375 C 227.789062 88.035156 227.824219 87.929688 227.898438 87.824219 C 227.859375 87.789062 227.859375 87.859375 227.824219 87.859375 C 227.789062 87.859375 227.898438 87.789062 227.824219 87.824219 L 227.898438 87.824219 C 227.96875 87.753906 227.824219 87.894531 227.898438 87.824219 C 227.898438 87.753906 227.933594 87.824219 227.933594 87.789062 C 227.933594 87.753906 227.933594 87.824219 227.96875 87.824219 C 228.003906 87.824219 227.824219 87.824219 227.859375 87.789062 L 228.074219 87.929688 C 228.394531 88.109375 228.820312 88 229.035156 87.679688 C 229.210938 87.324219 229.105469 86.898438 228.785156 86.683594 C 228.324219 86.363281 227.753906 86.328125 227.257812 86.578125 C 226.828125 86.792969 226.546875 87.21875 226.4375 87.679688 C 226.117188 88.570312 226.082031 89.53125 226.332031 90.417969 C 226.617188 91.308594 227.433594 92.269531 228.5 91.984375 C 229.566406 91.699219 229.816406 90.5625 229.816406 89.601562 C 229.816406 89.066406 229.746094 88.535156 229.566406 88.035156 C 229.496094 87.574219 229.25 87.148438 228.929688 86.828125 C 228.679688 86.507812 228.253906 86.4375 227.933594 86.683594 C 227.613281 86.933594 227.542969 87.359375 227.789062 87.679688 C 227.824219 87.753906 227.859375 87.789062 227.933594 87.824219 Z M 227.898438 87.824219 " fill-opacity="1" fill-rule="nonzero"/><path fill="#000000" d="M 229.355469 78.863281 C 227.433594 78.007812 225.230469 78.042969 223.378906 79.003906 C 222.953125 79.253906 222.777344 79.820312 223.058594 80.285156 C 223.34375 80.710938 223.914062 80.851562 224.339844 80.605469 L 224.625 80.460938 C 224.445312 80.570312 224.730469 80.425781 224.765625 80.425781 L 225.371094 80.25 L 225.761719 80.25 L 226.332031 80.175781 L 226.9375 80.175781 C 226.972656 80.175781 227.328125 80.210938 227.078125 80.175781 L 227.328125 80.175781 L 227.898438 80.320312 L 228.21875 80.425781 L 228.394531 80.496094 C 228.855469 80.746094 229.425781 80.570312 229.675781 80.140625 C 229.886719 79.75 229.816406 79.074219 229.355469 78.863281 Z M 229.355469 78.863281 " fill-opacity="1" fill-rule="nonzero"/><path fill="#000000" d="M 214.382812 92.304688 C 214.0625 93.050781 213.601562 93.726562 213.066406 94.332031 C 212.460938 95.007812 212 95.789062 211.644531 96.605469 C 210.898438 98.457031 211.714844 100.164062 212.640625 101.726562 C 213.566406 103.292969 214.917969 101.835938 214.277344 100.804688 C 213.847656 100.164062 213.53125 99.453125 213.28125 98.742188 C 213.136719 98.101562 213.28125 97.390625 213.601562 96.820312 C 214.382812 95.398438 215.628906 94.332031 216.230469 92.800781 C 216.375 92.304688 216.054688 91.769531 215.554688 91.628906 C 215.058594 91.523438 214.523438 91.804688 214.382812 92.304688 Z M 214.382812 92.304688 " fill-opacity="1" fill-rule="nonzero"/><path fill="#000000" d="M 217.691406 108.734375 C 220.925781 108.910156 224.054688 107.773438 226.472656 105.640625 C 226.828125 105.25 226.828125 104.679688 226.472656 104.289062 C 226.082031 103.96875 225.550781 103.96875 225.160156 104.289062 C 223.097656 106.101562 220.429688 107.027344 217.691406 106.847656 C 217.15625 106.847656 216.765625 107.242188 216.730469 107.773438 C 216.765625 108.308594 217.15625 108.699219 217.691406 108.734375 Z M 217.691406 108.734375 " fill-opacity="1" fill-rule="nonzero"/><path fill="#000000" d="M 202.078125 78.292969 C 201.792969 70.148438 208.054688 63.25 216.160156 62.714844 C 217.371094 62.644531 217.40625 60.761719 216.160156 60.832031 C 207.019531 61.398438 199.945312 69.117188 200.191406 78.292969 C 200.230469 79.5 202.113281 79.5 202.078125 78.292969 Z M 202.078125 78.292969 " fill-opacity="1" fill-rule="nonzero"/><path fill="#000000" d="M 218.828125 61.292969 C 220 57.167969 225.480469 58.449219 227.898438 60.476562 C 231.0625 63.070312 232.519531 67.230469 233.90625 70.929688 C 235.292969 74.628906 236.789062 78.898438 238.707031 82.703125 C 240.308594 85.867188 242.40625 89.066406 245.785156 90.5625 C 246.886719 91.058594 247.847656 89.421875 246.746094 88.925781 C 243.617188 87.574219 241.800781 84.65625 240.308594 81.742188 C 238.816406 78.824219 237.320312 74.664062 235.96875 71.039062 C 233.835938 65.417969 231.097656 57.773438 224.199219 56.742188 C 221.210938 56.3125 217.867188 57.738281 216.980469 60.796875 C 216.660156 61.96875 218.472656 62.46875 218.828125 61.292969 Z M 218.828125 61.292969 " fill-opacity="1" fill-rule="nonzero"/><path fill="#000000" d="M 221.957031 63.570312 C 224.875 61.753906 228.679688 62.324219 230.992188 64.847656 C 231.808594 65.773438 233.125 64.421875 232.34375 63.535156 C 229.566406 60.402344 224.554688 59.691406 220.996094 61.933594 C 220 62.574219 220.925781 64.210938 221.957031 63.570312 Z M 221.957031 63.570312 " fill-opacity="1" fill-rule="nonzero"/><path fill="#000000" d="M 216.585938 57.453125 C 219.789062 51.65625 226.011719 48.738281 231.949219 46.535156 C 233.089844 46.109375 232.589844 44.292969 231.453125 44.722656 C 225.050781 47.105469 218.402344 50.269531 214.953125 56.527344 C 214.382812 57.558594 216.019531 58.519531 216.585938 57.453125 Z M 216.585938 57.453125 " fill-opacity="1" fill-rule="nonzero"/><path fill="#000000" d="M 251.332031 113.855469 C 251.332031 112.289062 251.546875 110.691406 252.648438 109.480469 C 253.75 108.273438 255.210938 107.597656 256.488281 106.707031 C 261.824219 103.152344 265.488281 97.957031 268.226562 92.199219 C 271.78125 84.730469 271.355469 75.804688 269.113281 68.015625 C 267.835938 63.78125 266.054688 59.726562 263.78125 55.957031 C 261.929688 52.863281 259.832031 49.664062 256.878906 47.496094 C 251.511719 43.511719 244.007812 41.839844 237.429688 41.804688 C 236.148438 41.804688 234.902344 41.910156 233.65625 41.910156 C 232.308594 41.875 230.957031 41.945312 229.605469 42.054688 C 218.933594 43.015625 208.300781 47.566406 202.574219 56.988281 C 200.476562 60.441406 198.914062 64.386719 197.738281 68.226562 C 196.886719 71.074219 196.246094 74.097656 196.351562 77.046875 C 196.496094 80.53125 197.703125 83.804688 200.335938 86.117188 C 200.761719 86.507812 201.226562 86.863281 201.722656 87.21875 C 202.683594 87.929688 203.644531 86.292969 202.648438 85.582031 C 200.511719 84.054688 199.054688 81.8125 198.484375 79.253906 C 197.242188 73.136719 200.050781 66.378906 202.574219 60.972656 C 205.136719 55.460938 209.402344 50.980469 214.773438 48.136719 C 218.933594 46 223.488281 44.613281 228.144531 44.117188 C 230.28125 43.832031 232.414062 43.867188 234.546875 43.796875 C 237.570312 43.726562 240.449219 43.726562 243.472656 44.257812 C 246.496094 44.792969 250.265625 45.894531 253.324219 47.496094 C 256.382812 49.09375 258.410156 51.300781 260.332031 54.109375 C 262.75 57.59375 264.738281 61.363281 266.234375 65.347656 C 268.9375 72.636719 270.179688 81.5625 267.550781 89.03125 C 266.164062 92.835938 264.136719 96.394531 261.574219 99.558594 C 260.046875 101.480469 258.230469 103.1875 256.203125 104.609375 C 253.679688 106.386719 250.550781 107.773438 249.734375 111.046875 C 249.519531 111.96875 249.449219 112.894531 249.449219 113.855469 C 249.484375 115.066406 251.367188 115.066406 251.332031 113.855469 Z M 251.332031 113.855469 " fill-opacity="1" fill-rule="nonzero"/><path fill="#000000" d="M 265.808594 61.007812 C 266.945312 58.839844 269.148438 57.59375 271.53125 57.308594 C 273.914062 57.027344 276.796875 57.984375 279 59.371094 C 283.765625 62.394531 287.394531 67.160156 288.675781 72.671875 C 291.449219 84.550781 285.1875 96.039062 283.554688 107.5625 C 282.769531 113.144531 282.734375 119.261719 286.683594 123.707031 C 287.5 124.59375 288.816406 123.28125 288 122.355469 C 283.980469 117.839844 284.761719 110.976562 285.828125 105.460938 C 287.039062 99.027344 289.3125 92.875 290.488281 86.4375 C 291.484375 80.886719 291.695312 74.949219 289.742188 69.578125 C 287.679688 64.175781 283.730469 59.726562 278.644531 56.988281 C 273.84375 54.5 266.980469 54.75 264.171875 60.046875 C 263.636719 61.117188 265.238281 62.074219 265.808594 61.007812 Z M 265.808594 61.007812 " fill-opacity="1" fill-rule="nonzero"/><path fill="#000000" d="M 265.488281 60.796875 C 267.90625 60.476562 270.074219 63.285156 271.25 65.0625 C 272.421875 66.839844 273.347656 68.9375 273.488281 71.039062 C 273.59375 72.816406 273.3125 74.59375 272.671875 76.265625 C 272.171875 77.582031 271.355469 79.394531 269.898438 79.855469 C 268.4375 80.320312 269.222656 82.027344 270.394531 81.671875 C 272.316406 81.066406 273.453125 79.253906 274.164062 77.511719 C 274.875 75.765625 275.585938 73.027344 275.375 70.789062 C 275.160156 68.546875 273.949219 65.5625 272.421875 63.425781 C 270.890625 61.292969 268.367188 58.519531 265.488281 58.910156 C 264.3125 59.054688 264.277344 60.9375 265.488281 60.796875 Z M 265.488281 60.796875 " fill-opacity="1" fill-rule="nonzero"/><path fill="#000000" d="M 262.285156 100.378906 C 262.394531 106.957031 264.5625 113.359375 268.472656 118.65625 C 272.351562 123.8125 278.148438 128.578125 284.90625 128.71875 C 286.113281 128.757812 286.113281 126.871094 284.90625 126.835938 C 278.644531 126.695312 273.132812 121.964844 269.683594 117.089844 C 266.199219 112.21875 264.277344 106.386719 264.171875 100.378906 C 264.136719 99.167969 262.25 99.167969 262.285156 100.378906 Z M 262.285156 100.378906 " fill-opacity="1" fill-rule="nonzero"/><path fill="#000000" d="M 274.449219 112.253906 C 275.730469 115.777344 277.402344 119.261719 280.03125 122 C 282.664062 124.738281 285.792969 126.300781 289.386719 126.410156 C 290.59375 126.445312 290.59375 124.558594 289.386719 124.523438 C 282.414062 124.3125 278.394531 117.589844 276.261719 111.757812 C 275.835938 110.65625 274.023438 111.117188 274.449219 112.253906 Z M 274.449219 112.253906 " fill-opacity="1" fill-rule="nonzero"/><path fill="#000000" d="M 239.808594 112.753906 C 239.808594 112.753906 232.058594 121.574219 222.3125 125.554688 L 221.28125 122.070312 C 221.28125 122.070312 229.925781 120.398438 231.027344 119.722656 C 233.871094 117.910156 239.808594 112.753906 239.808594 112.753906 Z M 239.808594 112.753906 " fill-opacity="1" fill-rule="nonzero"/><path fill="#000000" d="M 251.191406 106.457031 L 251.191406 106.351562 L 250.726562 107.167969 L 250.835938 107.097656 L 250.125 107.203125 L 250.265625 107.203125 L 249.695312 106.777344 C 249.589844 106.601562 249.554688 107.488281 249.519531 107.667969 C 249.519531 107.988281 249.484375 108.308594 249.449219 108.628906 C 249.375 109.339844 249.304688 110.085938 249.269531 110.796875 C 249.164062 112.183594 249.09375 113.535156 249.09375 114.921875 C 249.058594 117.730469 249.304688 120.578125 249.769531 123.351562 C 249.980469 124.558594 251.796875 124.0625 251.582031 122.851562 C 251.011719 119.332031 250.835938 115.738281 251.046875 112.183594 C 251.15625 110.40625 251.367188 108.628906 251.511719 106.847656 C 251.546875 106.210938 251.332031 105.496094 250.621094 105.355469 C 250.015625 105.25 249.449219 105.640625 249.339844 106.210938 C 249.339844 106.28125 249.304688 106.351562 249.304688 106.421875 C 249.234375 107.632812 251.121094 107.632812 251.191406 106.421875 Z M 251.191406 106.457031 " fill-opacity="1" fill-rule="nonzero"/><path fill="#000000" d="M 250.621094 120.503906 C 246.636719 120.503906 243.402344 116.34375 243.402344 111.292969 C 243.402344 107.597656 245.074219 104.289062 247.707031 102.832031 C 248.167969 102.582031 248.738281 102.757812 248.984375 103.1875 C 249.234375 103.613281 249.09375 104.183594 248.664062 104.464844 C 248.664062 104.464844 248.664062 104.464844 248.628906 104.464844 C 246.601562 105.605469 245.289062 108.273438 245.289062 111.292969 C 245.289062 115.3125 247.667969 118.621094 250.621094 118.621094 C 253.574219 118.621094 255.957031 115.3125 255.957031 111.292969 C 255.957031 108.273438 254.640625 105.605469 252.613281 104.464844 C 252.152344 104.21875 251.972656 103.648438 252.222656 103.1875 C 252.507812 102.757812 253.039062 102.617188 253.503906 102.832031 C 256.132812 104.289062 257.839844 107.597656 257.839844 111.292969 C 257.839844 116.34375 254.605469 120.503906 250.621094 120.503906 Z M 250.621094 120.503906 " fill-opacity="1" fill-rule="nonzero"/><path fill="#000000" d="M 206.027344 120.503906 C 202.148438 120.503906 198.984375 116.453125 198.984375 111.507812 C 198.984375 108.519531 200.15625 105.710938 202.113281 104.039062 L 202.789062 104.714844 L 203.394531 105.425781 C 201.792969 106.777344 200.867188 109.054688 200.867188 111.507812 C 200.867188 115.421875 203.179688 118.621094 206.027344 118.621094 C 207.695312 118.621094 209.296875 117.484375 210.257812 115.5625 L 211.929688 116.453125 C 210.648438 118.976562 208.445312 120.503906 206.027344 120.503906 Z M 206.027344 120.503906 " fill-opacity="1" fill-rule="nonzero"/><path fill="#000000" d="M 205.066406 217.308594 C 216.089844 216.632812 227.1875 217.519531 237.960938 219.941406 C 239.132812 220.222656 239.632812 218.410156 238.460938 218.125 C 227.503906 215.671875 216.269531 214.746094 205.066406 215.421875 C 203.855469 215.496094 203.820312 217.378906 205.066406 217.308594 Z M 205.066406 217.308594 " fill-opacity="1" fill-rule="nonzero"/><path fill="#ffe397" d="M 176.542969 112.789062 C 176.542969 113.378906 176.515625 113.96875 176.457031 114.558594 C 176.398438 115.148438 176.3125 115.734375 176.195312 116.3125 C 176.082031 116.894531 175.9375 117.464844 175.765625 118.03125 C 175.59375 118.597656 175.394531 119.15625 175.167969 119.703125 C 174.941406 120.25 174.691406 120.78125 174.410156 121.304688 C 174.132812 121.828125 173.828125 122.332031 173.5 122.824219 C 173.171875 123.316406 172.820312 123.792969 172.441406 124.25 C 172.066406 124.707031 171.671875 125.144531 171.253906 125.5625 C 170.835938 125.980469 170.394531 126.378906 169.9375 126.753906 C 169.480469 127.128906 169.007812 127.480469 168.515625 127.808594 C 168.023438 128.136719 167.515625 128.441406 166.996094 128.722656 C 166.472656 129 165.9375 129.253906 165.390625 129.480469 C 164.84375 129.707031 164.289062 129.90625 163.722656 130.078125 C 163.15625 130.25 162.582031 130.390625 162.003906 130.507812 C 161.421875 130.621094 160.835938 130.710938 160.25 130.765625 C 159.660156 130.824219 159.070312 130.855469 158.476562 130.855469 C 157.886719 130.855469 157.296875 130.824219 156.707031 130.765625 C 156.117188 130.710938 155.535156 130.621094 154.953125 130.507812 C 154.375 130.390625 153.800781 130.25 153.234375 130.078125 C 152.667969 129.90625 152.109375 129.707031 151.5625 129.480469 C 151.019531 129.253906 150.484375 129 149.960938 128.722656 C 149.441406 128.441406 148.933594 128.136719 148.441406 127.808594 C 147.949219 127.480469 147.472656 127.128906 147.015625 126.753906 C 146.558594 126.378906 146.121094 125.980469 145.703125 125.5625 C 145.285156 125.144531 144.886719 124.707031 144.511719 124.25 C 144.136719 123.792969 143.785156 123.316406 143.457031 122.824219 C 143.128906 122.332031 142.824219 121.828125 142.546875 121.304688 C 142.265625 120.78125 142.011719 120.25 141.789062 119.703125 C 141.5625 119.15625 141.363281 118.597656 141.191406 118.03125 C 141.019531 117.464844 140.875 116.894531 140.757812 116.3125 C 140.644531 115.734375 140.558594 115.148438 140.5 114.558594 C 140.441406 113.96875 140.410156 113.378906 140.410156 112.789062 C 140.410156 112.195312 140.441406 111.605469 140.5 111.019531 C 140.558594 110.429688 140.644531 109.84375 140.757812 109.265625 C 140.875 108.683594 141.019531 108.109375 141.191406 107.542969 C 141.363281 106.976562 141.5625 106.421875 141.789062 105.875 C 142.011719 105.328125 142.265625 104.792969 142.546875 104.273438 C 142.824219 103.75 143.128906 103.242188 143.457031 102.75 C 143.785156 102.257812 144.136719 101.785156 144.511719 101.328125 C 144.886719 100.871094 145.285156 100.433594 145.703125 100.015625 C 146.121094 99.59375 146.558594 99.199219 147.015625 98.824219 C 147.472656 98.449219 147.949219 98.097656 148.441406 97.765625 C 148.933594 97.4375 149.441406 97.132812 149.960938 96.855469 C 150.484375 96.578125 151.019531 96.324219 151.5625 96.097656 C 152.109375 95.871094 152.667969 95.671875 153.234375 95.5 C 153.800781 95.328125 154.375 95.183594 154.953125 95.070312 C 155.535156 94.953125 156.117188 94.867188 156.707031 94.808594 C 157.296875 94.75 157.886719 94.722656 158.476562 94.722656 C 159.070312 94.722656 159.660156 94.75 160.25 94.808594 C 160.835938 94.867188 161.421875 94.953125 162.003906 95.070312 C 162.582031 95.183594 163.15625 95.328125 163.722656 95.5 C 164.289062 95.671875 164.84375 95.871094 165.390625 96.097656 C 165.9375 96.324219 166.472656 96.578125 166.996094 96.855469 C 167.515625 97.132812 168.023438 97.4375 168.515625 97.765625 C 169.007812 98.097656 169.480469 98.449219 169.9375 98.824219 C 170.394531 99.199219 170.835938 99.59375 171.253906 100.015625 C 171.671875 100.433594 172.066406 100.871094 172.441406 101.328125 C 172.820312 101.785156 173.171875 102.257812 173.5 102.75 C 173.828125 103.242188 174.132812 103.75 174.410156 104.273438 C 174.691406 104.792969 174.941406 105.328125 175.167969 105.875 C 175.394531 106.421875 175.59375 106.976562 175.765625 107.542969 C 175.9375 108.109375 176.082031 108.683594 176.195312 109.265625 C 176.3125 109.84375 176.398438 110.429688 176.457031 111.019531 C 176.515625 111.605469 176.542969 112.195312 176.542969 112.789062 Z M 176.542969 112.789062 " fill-opacity="1" fill-rule="nonzero"/><path fill="#000000" d="M 158.476562 131.816406 C 147.988281 131.816406 139.453125 123.28125 139.453125 112.789062 C 139.453125 102.296875 147.988281 93.761719 158.476562 93.761719 C 168.96875 93.761719 177.503906 102.296875 177.503906 112.789062 C 177.503906 123.28125 168.96875 131.816406 158.476562 131.816406 Z M 158.476562 95.683594 C 149.019531 95.683594 141.335938 103.363281 141.335938 112.824219 C 141.335938 122.285156 149.019531 129.964844 158.476562 129.964844 C 167.9375 129.964844 175.621094 122.285156 175.621094 112.824219 C 175.621094 112.824219 175.621094 112.789062 175.621094 112.789062 C 175.582031 103.328125 167.9375 95.683594 158.476562 95.683594 Z M 158.476562 95.683594 " fill-opacity="1" fill-rule="nonzero"/><path fill="#000000" d="M 163.457031 106.246094 C 161.609375 104.464844 159.082031 103.257812 156.628906 104.644531 C 154.175781 106.03125 153.535156 108.34375 154.566406 110.441406 C 155.597656 112.539062 158.15625 112.683594 160.183594 113.464844 C 161.074219 113.820312 161.75 114.636719 161.890625 115.597656 C 162.070312 116.558594 161.644531 117.269531 160.933594 117.945312 C 160.21875 118.621094 159.1875 118.835938 158.050781 118.515625 C 156.804688 118.160156 155.703125 117.410156 154.886719 116.414062 C 154.175781 115.457031 152.539062 116.378906 153.285156 117.339844 C 154.636719 119.191406 156.84375 120.542969 159.1875 120.578125 C 161.535156 120.613281 163.457031 118.726562 163.777344 116.664062 C 164.0625 114.425781 162.710938 112.324219 160.578125 111.613281 C 158.976562 111.082031 155.703125 110.867188 156.058594 108.414062 C 156.273438 107.242188 157.125 106.316406 158.265625 105.996094 C 159.792969 105.605469 161.109375 106.566406 162.140625 107.5625 C 163.171875 108.554688 164.347656 107.0625 163.457031 106.246094 Z M 163.457031 106.246094 " fill-opacity="1" fill-rule="nonzero"/><path fill="#000000" d="M 157.945312 102.402344 L 157.945312 104.183594 C 157.945312 104.429688 158.050781 104.679688 158.195312 104.859375 C 158.371094 105.035156 158.621094 105.105469 158.871094 105.105469 C 159.117188 105.105469 159.367188 105.035156 159.542969 104.859375 C 159.722656 104.679688 159.828125 104.429688 159.828125 104.183594 L 159.828125 102.402344 C 159.828125 102.15625 159.722656 101.90625 159.542969 101.726562 C 159.152344 101.410156 158.585938 101.410156 158.195312 101.726562 C 158.050781 101.90625 157.945312 102.15625 157.945312 102.402344 Z M 157.945312 102.402344 " fill-opacity="1" fill-rule="nonzero"/><path fill="#000000" d="M 157.945312 120.113281 L 157.945312 123.207031 C 157.835938 123.742188 158.195312 124.238281 158.691406 124.347656 C 159.226562 124.453125 159.722656 124.097656 159.828125 123.597656 C 159.863281 123.492188 159.863281 123.351562 159.828125 123.242188 L 159.828125 120.148438 C 159.722656 119.617188 159.226562 119.296875 158.691406 119.402344 C 158.335938 119.4375 158.015625 119.722656 157.945312 120.113281 Z M 157.945312 120.113281 " fill-opacity="1" fill-rule="nonzero"/><path fill="#ffe397" d="M 188.171875 49.59375 C 188.171875 50.304688 188.105469 51.011719 187.964844 51.710938 C 187.824219 52.40625 187.621094 53.085938 187.347656 53.742188 C 187.074219 54.402344 186.742188 55.027344 186.34375 55.621094 C 185.949219 56.210938 185.5 56.757812 184.996094 57.261719 C 184.492188 57.765625 183.945312 58.214844 183.351562 58.613281 C 182.761719 59.007812 182.136719 59.339844 181.476562 59.613281 C 180.820312 59.886719 180.140625 60.09375 179.441406 60.230469 C 178.742188 60.371094 178.039062 60.441406 177.328125 60.441406 C 176.613281 60.441406 175.910156 60.371094 175.210938 60.230469 C 174.511719 60.09375 173.832031 59.886719 173.175781 59.613281 C 172.515625 59.339844 171.890625 59.007812 171.300781 58.613281 C 170.707031 58.214844 170.160156 57.765625 169.65625 57.261719 C 169.152344 56.757812 168.703125 56.210938 168.308594 55.621094 C 167.910156 55.027344 167.578125 54.402344 167.304688 53.742188 C 167.03125 53.085938 166.828125 52.40625 166.6875 51.710938 C 166.550781 51.011719 166.480469 50.304688 166.480469 49.59375 C 166.480469 48.878906 166.550781 48.175781 166.6875 47.476562 C 166.828125 46.777344 167.03125 46.101562 167.304688 45.441406 C 167.578125 44.785156 167.910156 44.160156 168.308594 43.566406 C 168.703125 42.976562 169.152344 42.425781 169.65625 41.921875 C 170.160156 41.417969 170.707031 40.96875 171.300781 40.574219 C 171.890625 40.179688 172.515625 39.84375 173.175781 39.570312 C 173.832031 39.300781 174.511719 39.09375 175.210938 38.953125 C 175.910156 38.816406 176.613281 38.746094 177.328125 38.746094 C 178.039062 38.746094 178.742188 38.816406 179.441406 38.953125 C 180.140625 39.09375 180.820312 39.300781 181.476562 39.570312 C 182.136719 39.84375 182.761719 40.179688 183.351562 40.574219 C 183.945312 40.96875 184.492188 41.417969 184.996094 41.921875 C 185.5 42.425781 185.949219 42.976562 186.34375 43.566406 C 186.742188 44.160156 187.074219 44.785156 187.347656 45.441406 C 187.621094 46.101562 187.824219 46.777344 187.964844 47.476562 C 188.105469 48.175781 188.171875 48.878906 188.171875 49.59375 Z M 188.171875 49.59375 " fill-opacity="1" fill-rule="nonzero"/><path fill="#000000" d="M 177.328125 61.363281 C 170.816406 61.363281 165.519531 56.066406 165.519531 49.558594 C 165.519531 43.050781 170.816406 37.75 177.328125 37.75 C 183.835938 37.75 189.132812 43.050781 189.132812 49.558594 C 189.132812 49.558594 189.132812 49.59375 189.132812 49.59375 C 189.097656 56.101562 183.835938 61.363281 177.328125 61.363281 Z M 177.328125 39.671875 C 171.851562 39.671875 167.402344 44.117188 167.402344 49.59375 C 167.402344 55.070312 171.851562 59.515625 177.328125 59.515625 C 182.804688 59.515625 187.25 55.070312 187.25 49.59375 C 187.25 44.117188 182.804688 39.671875 177.328125 39.671875 Z M 177.328125 39.671875 " fill-opacity="1" fill-rule="nonzero"/><path fill="#000000" d="M 180.597656 45.359375 C 179.351562 44.1875 177.644531 43.441406 176.011719 44.367188 C 174.375 45.289062 173.949219 46.925781 174.660156 48.347656 C 175.015625 49.023438 175.621094 49.523438 176.332031 49.769531 C 176.972656 50.019531 177.644531 50.089844 178.25 50.339844 C 178.640625 50.554688 178.960938 50.910156 179.035156 51.371094 C 179.070312 51.511719 179.035156 51.230469 179.035156 51.40625 L 179.035156 51.621094 C 179.035156 51.761719 179.070312 51.476562 179.035156 51.65625 C 178.996094 51.832031 178.996094 51.761719 178.996094 51.832031 C 178.960938 51.90625 178.925781 51.976562 178.855469 52.046875 L 178.535156 52.402344 L 178.214844 52.652344 L 178.144531 52.652344 C 178.109375 52.6875 177.824219 52.722656 178.003906 52.722656 C 177.71875 52.757812 177.433594 52.722656 177.183594 52.617188 C 176.507812 52.4375 175.9375 52.046875 175.511719 51.511719 C 175.226562 51.085938 174.660156 50.945312 174.230469 51.195312 C 173.769531 51.441406 173.628906 52.011719 173.875 52.4375 C 173.875 52.4375 173.875 52.4375 173.875 52.472656 C 174.800781 53.753906 176.222656 54.535156 177.789062 54.609375 C 179.175781 54.609375 180.667969 53.363281 180.882812 51.976562 C 181.097656 50.445312 180.171875 48.953125 178.714844 48.453125 C 178.074219 48.3125 177.46875 48.136719 176.863281 47.921875 C 176.6875 47.851562 176.507812 47.742188 176.402344 47.566406 C 176.332031 47.496094 176.257812 47.386719 176.257812 47.28125 L 176.257812 47.03125 C 176.332031 46.464844 176.757812 45.964844 177.328125 45.824219 C 178.074219 45.644531 178.75 46.144531 179.246094 46.675781 C 179.746094 47.210938 181.488281 46.179688 180.597656 45.359375 Z M 180.597656 45.359375 " fill-opacity="1" fill-rule="nonzero"/><path fill="#000000" d="M 176.613281 43.332031 L 176.613281 44.402344 C 176.613281 44.542969 176.652344 44.648438 176.722656 44.757812 C 176.757812 44.863281 176.828125 45.003906 176.898438 45.078125 C 176.972656 45.183594 177.113281 45.21875 177.21875 45.253906 C 177.328125 45.324219 177.433594 45.359375 177.574219 45.359375 C 177.824219 45.324219 178.074219 45.253906 178.25 45.078125 C 178.394531 44.898438 178.5 44.648438 178.5 44.402344 L 178.5 43.332031 C 178.535156 43.226562 178.5 43.085938 178.429688 42.976562 C 178.394531 42.871094 178.320312 42.765625 178.25 42.695312 C 178.144531 42.585938 178.039062 42.515625 177.929688 42.480469 C 177.824219 42.410156 177.683594 42.410156 177.574219 42.410156 C 177.328125 42.410156 177.078125 42.515625 176.898438 42.695312 C 176.722656 42.871094 176.613281 43.085938 176.613281 43.332031 Z M 176.613281 43.332031 " fill-opacity="1" fill-rule="nonzero"/><path fill="#000000" d="M 176.613281 53.96875 L 176.613281 55.816406 C 176.613281 56.351562 177.042969 56.777344 177.574219 56.777344 C 177.824219 56.777344 178.074219 56.671875 178.25 56.492188 C 178.429688 56.3125 178.5 56.066406 178.5 55.816406 L 178.5 53.96875 C 178.464844 53.433594 178.039062 53.042969 177.503906 53.042969 C 177.289062 53.042969 177.078125 53.148438 176.898438 53.292969 C 176.722656 53.46875 176.613281 53.71875 176.613281 53.96875 Z M 176.613281 53.96875 " fill-opacity="1" fill-rule="nonzero"/><g clip-path="url(#8ee6376797)"><path fill="#000000" d="M 142.4375 88.144531 L 36.390625 88.144531 C 34.007812 88.144531 32.085938 86.222656 32.085938 83.839844 L 32.085938 11.789062 C 32.121094 9.40625 34.007812 7.523438 36.390625 7.488281 L 142.4375 7.488281 C 144.820312 7.523438 146.707031 9.40625 146.742188 11.789062 L 146.742188 83.839844 C 146.742188 86.222656 144.820312 88.144531 142.4375 88.144531 Z M 36.390625 9.371094 C 35.074219 9.40625 34.007812 10.472656 33.972656 11.789062 L 33.972656 83.839844 C 33.972656 85.191406 35.039062 86.257812 36.390625 86.257812 L 142.4375 86.257812 C 143.789062 86.257812 144.855469 85.191406 144.855469 83.839844 L 144.855469 11.789062 C 144.820312 10.472656 143.753906 9.40625 142.4375 9.371094 Z M 36.390625 9.371094 " fill-opacity="1" fill-rule="nonzero"/></g><path fill="#6293f1" d="M 48.910156 32.773438 L 55.699219 32.773438 L 55.699219 47.210938 L 48.910156 47.210938 Z M 48.910156 32.773438 " fill-opacity="1" fill-rule="nonzero"/><path fill="#000000" d="M 56.625 48.136719 L 47.949219 48.136719 L 47.949219 31.8125 L 56.625 31.8125 Z M 49.832031 46.25 L 54.742188 46.25 L 54.742188 33.695312 L 49.832031 33.695312 Z M 49.832031 46.25 " fill-opacity="1" fill-rule="nonzero"/><path fill="#6293f1" d="M 62.847656 25.800781 L 69.640625 25.800781 L 69.640625 47.210938 L 62.847656 47.210938 Z M 62.847656 25.800781 " fill-opacity="1" fill-rule="nonzero"/><path fill="#000000" d="M 70.601562 48.136719 L 61.925781 48.136719 L 61.925781 24.875 L 70.601562 24.875 Z M 63.808594 46.25 L 68.71875 46.25 L 68.71875 26.761719 L 63.808594 26.761719 Z M 63.808594 46.25 " fill-opacity="1" fill-rule="nonzero"/><path fill="#6293f1" d="M 76.824219 21 L 83.617188 21 L 83.617188 47.210938 L 76.824219 47.210938 Z M 76.824219 21 " fill-opacity="1" fill-rule="nonzero"/><path fill="#000000" d="M 84.542969 48.136719 L 75.863281 48.136719 L 75.863281 20.074219 L 84.542969 20.074219 Z M 77.75 46.25 L 82.65625 46.25 L 82.65625 21.960938 L 77.75 21.960938 Z M 77.75 46.25 " fill-opacity="1" fill-rule="nonzero"/><path fill="#6293f1" d="M 90.765625 32.628906 L 97.558594 32.628906 L 97.558594 47.210938 L 90.765625 47.210938 Z M 90.765625 32.628906 " fill-opacity="1" fill-rule="nonzero"/><path fill="#000000" d="M 98.519531 48.136719 L 89.804688 48.136719 L 89.804688 31.667969 L 98.519531 31.667969 Z M 91.691406 46.25 L 96.632812 46.25 L 96.632812 33.554688 L 91.691406 33.554688 Z M 91.691406 46.25 " fill-opacity="1" fill-rule="nonzero"/><path fill="#000000" d="M 110.574219 30.316406 L 133.902344 30.316406 L 133.902344 32.203125 L 110.574219 32.203125 Z M 110.574219 30.316406 " fill-opacity="1" fill-rule="nonzero"/><path fill="#000000" d="M 110.574219 36.613281 L 133.902344 36.613281 L 133.902344 38.496094 L 110.574219 38.496094 Z M 110.574219 36.613281 " fill-opacity="1" fill-rule="nonzero"/><path fill="#000000" d="M 110.574219 42.90625 L 133.902344 42.90625 L 133.902344 44.792969 L 110.574219 44.792969 Z M 110.574219 42.90625 " fill-opacity="1" fill-rule="nonzero"/><path fill="#a3dfbe" d="M 122.027344 61.292969 L 108.191406 62.503906 L 88.5625 69.332031 L 68.289062 66.058594 L 51.96875 73.457031 L 47.949219 75.054688 L 133.476562 75.054688 L 133.476562 56.8125 Z M 122.027344 61.292969 " fill-opacity="1" fill-rule="nonzero"/><path fill="#000000" d="M 133.476562 76.015625 L 47.949219 76.015625 C 47.484375 76.015625 47.09375 75.695312 47.023438 75.234375 C 46.917969 74.808594 47.164062 74.34375 47.59375 74.203125 L 51.609375 72.601562 L 67.898438 65.207031 C 68.078125 65.132812 68.289062 65.097656 68.46875 65.132812 L 88.488281 68.371094 L 107.871094 61.613281 L 108.085938 61.613281 L 121.777344 60.402344 L 133.121094 55.957031 C 133.40625 55.851562 133.761719 55.886719 134.011719 56.066406 C 134.257812 56.242188 134.402344 56.527344 134.402344 56.847656 L 134.402344 75.089844 C 134.367188 75.589844 133.976562 75.980469 133.476562 76.015625 Z M 52.785156 74.132812 L 132.515625 74.132812 L 132.515625 58.199219 L 122.347656 62.183594 L 122.097656 62.253906 L 108.371094 63.425781 L 88.882812 70.21875 C 88.738281 70.289062 88.5625 70.289062 88.417969 70.253906 L 68.433594 67.054688 Z M 52.785156 74.132812 " fill-opacity="1" fill-rule="nonzero"/><path fill="#000000" d="M 48.125 74.984375 C 47.628906 74.984375 47.203125 74.558594 47.203125 74.058594 L 47.203125 57.347656 C 47.09375 56.8125 47.449219 56.3125 47.949219 56.207031 C 48.480469 56.101562 48.980469 56.457031 49.085938 56.953125 C 49.121094 57.0625 49.121094 57.203125 49.085938 57.308594 L 49.085938 74.023438 C 49.050781 74.59375 48.660156 74.984375 48.125 74.984375 Z M 48.125 74.984375 " fill-opacity="1" fill-rule="nonzero"/><path fill="#a3dfbe" d="M 29.171875 105.460938 C 27.75 105.460938 26.289062 105.605469 24.902344 105.890625 L 29.277344 125.945312 L 9.183594 121.574219 C 8.898438 122.996094 8.722656 124.417969 8.722656 125.875 C 8.6875 137.183594 17.828125 146.324219 29.136719 146.359375 C 40.445312 146.394531 49.585938 137.253906 49.621094 125.945312 C 49.65625 114.636719 40.515625 105.496094 29.171875 105.460938 C 29.207031 105.460938 29.171875 105.460938 29.171875 105.460938 Z M 29.171875 105.460938 " fill-opacity="1" fill-rule="nonzero"/><g clip-path="url(#e6deed338a)"><path fill="#000000" d="M 29.171875 147.285156 C 17.363281 147.25 7.796875 137.683594 7.796875 125.875 C 7.796875 124.347656 7.941406 122.851562 8.296875 121.359375 C 8.332031 121.109375 8.472656 120.898438 8.6875 120.753906 C 8.898438 120.648438 9.148438 120.578125 9.398438 120.648438 L 28.03125 124.703125 L 24.015625 106.101562 C 23.941406 105.855469 23.980469 105.605469 24.121094 105.390625 C 24.261719 105.179688 24.476562 105.035156 24.726562 105 C 26.183594 104.679688 27.675781 104.503906 29.171875 104.503906 C 40.976562 105 50.1875 114.957031 49.691406 126.765625 C 49.230469 137.894531 40.300781 146.820312 29.171875 147.285156 Z M 9.929688 122.746094 C 9.753906 123.777344 9.683594 124.808594 9.683594 125.875 C 9.683594 136.402344 18.21875 144.902344 28.707031 144.902344 C 39.199219 144.902344 47.734375 136.367188 47.734375 125.875 C 47.734375 115.347656 39.199219 106.847656 28.707031 106.847656 C 27.675781 106.847656 26.683594 106.957031 25.648438 107.097656 L 29.703125 125.734375 C 29.8125 126.230469 29.527344 126.695312 29.027344 126.800781 C 28.886719 126.835938 28.746094 126.835938 28.601562 126.800781 Z M 9.929688 122.746094 " fill-opacity="1" fill-rule="nonzero"/></g><path fill="#6293f1" d="M 24.902344 105.855469 C 17.042969 107.523438 10.855469 113.675781 9.148438 121.535156 L 29.277344 125.945312 Z M 24.902344 105.855469 " fill-opacity="1" fill-rule="nonzero"/><path fill="#000000" d="M 29.277344 126.871094 L 29.0625 126.871094 L 8.9375 122.460938 C 8.4375 122.355469 8.117188 121.855469 8.222656 121.359375 C 10.003906 113.109375 16.476562 106.671875 24.726562 104.929688 C 25.222656 104.824219 25.722656 105.140625 25.828125 105.640625 L 30.203125 125.734375 C 30.273438 126.054688 30.167969 126.375 29.953125 126.585938 C 29.777344 126.765625 29.527344 126.871094 29.277344 126.871094 Z M 10.289062 120.824219 L 28.03125 124.703125 L 24.191406 106.992188 C 17.398438 108.769531 12.101562 114.070312 10.289062 120.824219 Z M 10.289062 120.824219 " fill-opacity="1" fill-rule="nonzero"/><path fill="#000000" d="M 9.183594 121.574219 L 8.828125 124.488281 C 8.828125 124.488281 25.542969 125.699219 27.714844 125.980469 Z M 9.183594 121.574219 " fill-opacity="1" fill-rule="nonzero"/><path fill="#000000" d="M 27.714844 125.980469 L 27.925781 126.054688 C 27.925781 126.054688 27.855469 126.019531 27.714844 125.980469 Z M 27.714844 125.980469 " fill-opacity="1" fill-rule="nonzero"/><path fill="#ffffff" d="M 88.363281 204.761719 C 88.984375 205.1875 89.558594 205.664062 90.09375 206.1875 C 90.628906 206.710938 91.113281 207.269531 91.542969 207.871094 C 91.972656 208.46875 92.34375 209.097656 92.652344 209.75 C 92.960938 210.402344 93.203125 211.070312 93.378906 211.75 C 93.554688 212.433594 93.660156 213.113281 93.699219 213.796875 C 93.734375 214.480469 93.699219 215.152344 93.59375 215.808594 C 93.488281 216.46875 93.316406 217.101562 93.074219 217.710938 C 92.832031 218.320312 92.527344 218.894531 92.15625 219.429688 C 91.785156 219.96875 91.359375 220.457031 90.875 220.898438 C 90.390625 221.339844 89.859375 221.730469 89.28125 222.0625 C 88.703125 222.394531 88.089844 222.664062 87.4375 222.871094 C 86.785156 223.082031 86.109375 223.222656 85.410156 223.300781 C 84.710938 223.378906 84.003906 223.386719 83.28125 223.332031 C 82.5625 223.273438 81.84375 223.152344 81.132812 222.960938 C 80.417969 222.773438 79.722656 222.519531 79.042969 222.207031 C 78.363281 221.894531 77.714844 221.523438 77.097656 221.09375 C 76.476562 220.667969 75.898438 220.195312 75.367188 219.671875 C 74.832031 219.148438 74.347656 218.585938 73.917969 217.984375 C 73.488281 217.386719 73.117188 216.757812 72.808594 216.105469 C 72.5 215.453125 72.257812 214.785156 72.082031 214.105469 C 71.90625 213.425781 71.796875 212.742188 71.761719 212.058594 C 71.726562 211.375 71.761719 210.707031 71.867188 210.046875 C 71.96875 209.386719 72.144531 208.753906 72.386719 208.144531 C 72.628906 207.535156 72.933594 206.960938 73.304688 206.425781 C 73.675781 205.890625 74.101562 205.398438 74.585938 204.957031 C 75.066406 204.515625 75.597656 204.128906 76.175781 203.796875 C 76.757812 203.464844 77.371094 203.191406 78.023438 202.984375 C 78.675781 202.777344 79.347656 202.632812 80.046875 202.554688 C 80.746094 202.476562 81.457031 202.46875 82.175781 202.523438 C 82.898438 202.582031 83.613281 202.703125 84.328125 202.894531 C 85.042969 203.082031 85.738281 203.335938 86.417969 203.648438 C 87.097656 203.964844 87.746094 204.332031 88.363281 204.761719 Z M 88.363281 204.761719 " fill-opacity="1" fill-rule="nonzero"/><path fill="#000000" d="M 84.152344 224.527344 C 77.679688 224.527344 71.738281 219.441406 70.851562 213.253906 C 70.460938 210.230469 71.242188 207.386719 73.125 205.214844 C 75.191406 202.941406 78.140625 201.660156 81.234375 201.730469 C 87.707031 201.730469 93.648438 206.78125 94.5 213.003906 C 94.960938 215.886719 94.109375 218.800781 92.222656 221.007812 C 90.269531 223.28125 87.386719 224.527344 84.152344 224.527344 Z M 81.234375 203.617188 C 78.53125 203.617188 76.148438 204.613281 74.550781 206.460938 C 73.019531 208.273438 72.34375 210.65625 72.734375 213.003906 C 73.484375 218.304688 78.605469 222.640625 84.152344 222.640625 C 86.855469 222.640625 89.203125 221.609375 90.800781 219.761719 C 92.367188 217.984375 93.042969 215.601562 92.652344 213.253906 C 91.902344 207.917969 86.78125 203.617188 81.234375 203.617188 Z M 81.234375 203.617188 " fill-opacity="1" fill-rule="nonzero"/><g fill="#000000" fill-opacity="1"><g transform="translate(27.983364, 125.264124)"><g><path d="M 1.5 0.078125 C 1.0625 0.078125 0.84375 -0.191406 0.84375 -0.734375 C 0.84375 -1.273438 1.0625 -1.546875 1.5 -1.546875 C 1.925781 -1.546875 2.140625 -1.273438 2.140625 -0.734375 C 2.140625 -0.191406 1.925781 0.078125 1.5 0.078125 Z M 1.5 0.078125 "/></g></g></g></svg>