<svg xmlns="http://www.w3.org/2000/svg" xmlns:xlink="http://www.w3.org/1999/xlink" width="100" zoomAndPan="magnify" viewBox="0 0 75 37.5" height="50" preserveAspectRatio="xMidYMid meet" version="1.0"><defs><g/><clipPath id="5a1d85aa14"><path d="M 18.128906 3.699219 L 48.058594 3.699219 L 48.058594 29.097656 L 18.128906 29.097656 Z M 18.128906 3.699219 " clip-rule="nonzero"/></clipPath></defs><g clip-path="url(#5a1d85aa14)"><path fill="#100f0d" d="M 18.128906 10.5 C 18.128906 10.5 22.75 12.488281 25.53125 17.621094 C 25.53125 17.621094 35.578125 5.996094 48.058594 3.707031 C 48.058594 3.707031 33.09375 9.113281 22.285156 29.089844 C 22.285156 29.089844 24.363281 16.882812 18.128906 10.5 " fill-opacity="1" fill-rule="nonzero"/></g><g fill="#000000" fill-opacity="1"><g transform="translate(32.879709, 25.380043)"><g><path d="M 0.734375 0 L 0.734375 -6.59375 L 2.5625 -6.59375 L 2.5625 0 Z M 0.984375 -7.453125 L 1.90625 -9.40625 L 3.59375 -9.40625 L 2.28125 -7.453125 Z M 0.984375 -7.453125 "/></g></g></g><g fill="#000000" fill-opacity="1"><g transform="translate(36.168058, 25.380043)"><g/></g></g><g fill="#000000" fill-opacity="1"><g transform="translate(38.9713, 25.380043)"><g><path d="M 6.875 -6.59375 L 4.578125 0 L 2.515625 0 L 0.203125 -6.59375 L 2.140625 -6.59375 L 3.515625 -1.875 L 3.578125 -1.875 L 4.9375 -6.59375 Z M 6.875 -6.59375 "/></g></g></g><g fill="#000000" fill-opacity="1"><g transform="translate(46.054541, 25.380043)"><g><path d="M 4.953125 -2.8125 L 4.953125 -6.59375 L 6.796875 -6.59375 L 6.796875 0 L 5.03125 0 L 5.03125 -1.203125 L 4.96875 -1.203125 C 4.8125 -0.816406 4.5625 -0.503906 4.21875 -0.265625 C 3.875 -0.0351562 3.457031 0.078125 2.96875 0.078125 C 2.300781 0.078125 1.757812 -0.140625 1.34375 -0.578125 C 0.9375 -1.015625 0.734375 -1.617188 0.734375 -2.390625 L 0.734375 -6.59375 L 2.5625 -6.59375 L 2.5625 -2.71875 C 2.5625 -2.332031 2.664062 -2.023438 2.875 -1.796875 C 3.082031 -1.566406 3.359375 -1.453125 3.703125 -1.453125 C 4.035156 -1.453125 4.328125 -1.566406 4.578125 -1.796875 C 4.835938 -2.023438 4.960938 -2.363281 4.953125 -2.8125 Z M 4.953125 -2.8125 "/></g></g></g><g fill="#000000" fill-opacity="1"><g transform="translate(53.571363, 25.380043)"><g><path d="M 0.734375 0 L 0.734375 -6.59375 L 2.5625 -6.59375 L 2.5625 0 Z M 1.65625 -7.453125 C 1.382812 -7.453125 1.148438 -7.539062 0.953125 -7.71875 C 0.753906 -7.90625 0.65625 -8.125 0.65625 -8.375 C 0.65625 -8.625 0.753906 -8.835938 0.953125 -9.015625 C 1.148438 -9.203125 1.382812 -9.296875 1.65625 -9.296875 C 1.925781 -9.296875 2.15625 -9.203125 2.34375 -9.015625 C 2.539062 -8.835938 2.640625 -8.625 2.640625 -8.375 C 2.640625 -8.125 2.539062 -7.90625 2.34375 -7.71875 C 2.15625 -7.539062 1.925781 -7.453125 1.65625 -7.453125 Z M 1.65625 -7.453125 "/></g></g></g></svg>